<?xml version="1.0" encoding="UTF-8" standalone="no"?>
<svg
   xmlns:dc="http://purl.org/dc/elements/1.1/"
   xmlns:cc="http://creativecommons.org/ns#"
   xmlns:rdf="http://www.w3.org/1999/02/22-rdf-syntax-ns#"
   xmlns:svg="http://www.w3.org/2000/svg"
   xmlns="http://www.w3.org/2000/svg"
   xmlns:sodipodi="http://sodipodi.sourceforge.net/DTD/sodipodi-0.dtd"
   xmlns:inkscape="http://www.inkscape.org/namespaces/inkscape"
   sodipodi:docname="logo.svg"
   inkscape:version="1.0beta2 (a1ff676, 2020-03-31)"
   id="svg8"
   version="1.1"
   viewBox="0 0 66.901787 66.901787"
   height="66.901787mm"
   width="66.901787mm">
  <defs
     id="defs2" />
  <sodipodi:namedview
     inkscape:window-maximized="0"
     inkscape:window-y="183"
     inkscape:window-x="162"
     inkscape:window-height="793"
     inkscape:window-width="1260"
     showgrid="false"
     inkscape:document-rotation="0"
     inkscape:current-layer="layer1"
     inkscape:document-units="mm"
     inkscape:cy="163.78209"
     inkscape:cx="125.86116"
     inkscape:zoom="1.4"
     inkscape:pageshadow="2"
     inkscape:pageopacity="0.0"
     borderopacity="1.0"
     bordercolor="#666666"
     pagecolor="#ffffff"
     id="base" />
  <metadata
     id="metadata5">
    <rdf:RDF>
      <cc:Work
         rdf:about="">
        <dc:format>image/svg+xml</dc:format>
        <dc:type
           rdf:resource="http://purl.org/dc/dcmitype/StillImage" />
        <dc:title></dc:title>
      </cc:Work>
    </rdf:RDF>
  </metadata>
  <g
     transform="translate(-40.443451,-28.348213)"
     id="layer1"
     inkscape:groupmode="layer"
     inkscape:label="Capa 1">
    <rect
       y="28.348213"
       x="40.443451"
       height="66.901787"
       width="66.901787"
       id="background"
       style="fill:#050a46;fill-opacity:1;stroke-width:0.211906" />
    <g
       style="font-size:50.8px;line-height:1.25;font-family:Oranienbaum;-inkscape-font-specification:Oranienbaum;fill:#ffffff;stroke-width:0.264583"
       id="text12"
       aria-label="P" />
    <g
       inkscape:label="#foreground"
       style="font-size:50.8px;line-height:1.25;font-family:Oranienbaum;-inkscape-font-specification:Oranienbaum;letter-spacing:-2.11667px;word-spacing:0px;fill:#ffffff;stroke-width:0.264583"
       id="foreground"
       aria-label="15">
      <path
         inkscape:connector-curvature="0"
         d="m 80.684807,82.513096 h 0.587022 q 0.541866,0.451556 1.444978,1.128889 0.903111,0.699911 2.009422,1.354667 1.106311,0.654755 2.348089,1.128889 1.264355,0.474133 2.528711,0.474133 1.444977,0 2.528711,-0.474133 1.083733,-0.474134 1.806222,-1.377245 0.745067,-0.903111 1.106311,-2.2352 0.361244,-1.332089 0.361244,-3.025422 0,-2.325511 -0.677333,-3.793066 -0.677333,-1.490134 -1.851378,-2.348089 -1.151466,-0.857956 -2.731911,-1.174045 -1.557866,-0.338666 -3.341511,-0.338666 -0.654755,0 -1.286933,0.09031 -0.632178,0.06773 -1.2192,0.2032 -0.564444,0.135466 -1.061156,0.316089 -0.496711,0.158044 -0.857955,0.316088 l -0.383822,-0.09031 1.580444,-15.488355 h 14.4272 v 3.431822 H 84.771384 l -0.970844,8.873067 q 0.6096,-0.270934 1.2192,-0.428978 0.6096,-0.180622 1.196622,-0.270933 0.6096,-0.112889 1.151467,-0.135467 0.541866,-0.04516 1.016,-0.04516 2.190044,0 4.199466,0.564445 2.009422,0.541867 3.522134,1.693333 1.512711,1.151467 2.415822,2.957689 0.903111,1.783644 0.903111,4.289778 0,1.444977 -0.428978,2.777066 -0.4064,1.354667 -1.174044,2.528711 -0.745067,1.174045 -1.783645,2.144889 -1.038578,0.970845 -2.280355,1.648178 -1.241778,0.699911 -2.6416,1.083733 -1.377245,0.383823 -2.822222,0.383823 -1.715912,0 -3.070578,-0.270934 -1.332089,-0.248355 -2.348089,-0.632178 -1.016,-0.361244 -1.738489,-0.745066 -0.722489,-0.383822 -1.2192,-0.654756 z m -14.234756,-3.973688 3.883378,-0.654756 q 0.451555,-0.09031 0.699911,-0.428978 0.270933,-0.361244 0.270933,-0.857955 V 63.141363 60.83843 l 0.04516,-0.745067 -5.6896,1.557867 v -1.196622 l 8.286044,-3.883378 h 1.377244 q -0.04515,0.722489 -0.09031,1.648178 -0.02258,0.903111 -0.04515,1.873955 -0.02258,0.970845 -0.04516,1.919111 0,0.948267 0,1.738489 v 12.846756 q 0,0.519289 0.248356,0.857955 0.270933,0.338667 0.722489,0.428978 l 3.612444,0.654756 v 1.061155 H 66.450051 Z M 48.364324,65.085294 51.344591,64.385383 q 0.428978,-0.112889 0.722489,-0.451556 0.293511,-0.338666 0.293511,-0.835377 V 38.082272 q 0,-0.519289 -0.293511,-0.857955 -0.293511,-0.338667 -0.722489,-0.451556 l -2.980267,-0.677333 v -1.174045 h 11.717867 q 2.325511,0 4.380089,0.474134 2.077155,0.474133 3.635022,1.490133 1.557867,0.993422 2.4384,2.573867 0.903111,1.580444 0.903111,3.793066 0,2.348089 -0.790222,4.222045 -0.790222,1.873955 -2.190045,3.206044 -1.377244,1.309511 -3.273777,2.009422 -1.896534,0.699911 -4.131734,0.699911 -0.519288,0 -1.106311,-0.112889 Q 59.38228,53.14165 58.77268,52.93845 58.185658,52.712672 57.598635,52.441739 57.034191,52.148227 56.53748,51.854716 V 63.09845 q 0,0.519288 0.316089,0.857955 0.316089,0.338667 0.745066,0.428978 l 3.296356,0.699911 v 1.174044 H 48.364324 Z M 56.53748,50.929027 q 0.383822,0.09031 0.857955,0.158045 0.496712,0.06773 1.016,0.135467 0.541867,0.04516 1.083734,0.06773 0.564444,0.02258 1.061155,0.02258 1.377245,0 2.370667,-0.383823 0.993422,-0.383822 1.693333,-1.015999 0.722489,-0.632178 1.151467,-1.399823 0.451555,-0.767644 0.699911,-1.535289 0.270933,-0.790222 0.361244,-1.490133 0.09031,-0.699911 0.09031,-1.174044 0,-1.490134 -0.361245,-2.8448 -0.338667,-1.377245 -1.2192,-2.415822 -0.857955,-1.038578 -2.348089,-1.670756 -1.467555,-0.632178 -3.702755,-0.632178 H 56.53748 Z"
         style="font-style:normal;font-variant:normal;font-weight:normal;font-stretch:normal;font-family:'Sitka Banner';-inkscape-font-specification:'Sitka Banner';fill:#ffffff;stroke-width:0.264583"
         id="path869" />
    </g>
  </g>
</svg>
