<?xml version="1.0" encoding="UTF-8" standalone="no"?>
<svg
   xmlns:dc="http://purl.org/dc/elements/1.1/"
   xmlns:cc="http://creativecommons.org/ns#"
   xmlns:rdf="http://www.w3.org/1999/02/22-rdf-syntax-ns#"
   xmlns:svg="http://www.w3.org/2000/svg"
   xmlns="http://www.w3.org/2000/svg"
   xmlns:sodipodi="http://sodipodi.sourceforge.net/DTD/sodipodi-0.dtd"
   xmlns:inkscape="http://www.inkscape.org/namespaces/inkscape"
   width="48.779396mm"
   height="9.0011644mm"
   viewBox="0 0 48.779396 9.0011645"
   version="1.1"
   id="svg8"
   inkscape:version="1.0beta2 (a1ff676, 2020-03-31)"
   sodipodi:docname="logo.svg">
  <defs
     id="defs2" />
  <sodipodi:namedview
     id="base"
     pagecolor="#ffffff"
     bordercolor="#666666"
     borderopacity="1.0"
     inkscape:pageopacity="0.0"
     inkscape:pageshadow="2"
     inkscape:zoom="2"
     inkscape:cx="207.15942"
     inkscape:cy="-33.029546"
     inkscape:document-units="mm"
     inkscape:current-layer="layer1"
     inkscape:document-rotation="0"
     showgrid="false"
     inkscape:window-width="1666"
     inkscape:window-height="629"
     inkscape:window-x="151"
     inkscape:window-y="180"
     inkscape:window-maximized="0" />
  <metadata
     id="metadata5">
    <rdf:RDF>
      <cc:Work
         rdf:about="">
        <dc:format>image/svg+xml</dc:format>
        <dc:type
           rdf:resource="http://purl.org/dc/dcmitype/StillImage" />
        <dc:title />
      </cc:Work>
    </rdf:RDF>
  </metadata>
  <g
     inkscape:label="Capa 1"
     inkscape:groupmode="layer"
     id="layer1"
     transform="translate(-45.134341,-66.302577)">
    <g
       style="font-style:normal;font-variant:normal;font-weight:normal;font-stretch:normal;font-size:10.5833px;line-height:1.25;font-family:'Sitka Banner';-inkscape-font-specification:'Sitka Banner';stroke-width:0.265;stroke-miterlimit:4;stroke-dasharray:none"
       id="text13"
       aria-label="Pasadena">
      <path
         inkscape:connector-curvature="0"
         id="path864"
         style="font-style:normal;font-variant:normal;font-weight:bold;font-stretch:normal;font-family:'Sitka Banner';-inkscape-font-specification:'Sitka Banner Bold';stroke-width:0.265;stroke-miterlimit:4;stroke-dasharray:none"
         d="m 45.134341,73.122926 0.597368,-0.174036 q 0.103481,-0.02822 0.159926,-0.09878 0.06115,-0.07526 0.06115,-0.17874 v -5.004725 q 0,-0.108185 -0.06115,-0.17874 -0.05645,-0.07526 -0.159926,-0.103481 l -0.597368,-0.169333 v -0.286925 h 2.789287 q 0.507999,0 0.959553,0.09878 0.451554,0.09878 0.790219,0.310444 0.338666,0.211666 0.536221,0.545628 0.197555,0.329258 0.197555,0.794923 0,0.493888 -0.169333,0.888997 -0.164629,0.39511 -0.456258,0.672628 -0.291628,0.277518 -0.686738,0.428036 -0.390407,0.145814 -0.846664,0.145814 -0.103481,0 -0.230481,-0.02822 -0.127,-0.02822 -0.258703,-0.07056 -0.127,-0.04704 -0.249295,-0.103481 -0.122296,-0.06115 -0.221074,-0.122296 v 2.182512 q 0,0.108185 0.06585,0.183444 0.06585,0.07055 0.159925,0.09407 l 0.672628,0.174036 v 0.286925 H 45.134341 Z M 47.95185,70.25838 q 0.221074,0 0.380999,-0.07526 0.164629,-0.07526 0.277518,-0.197555 0.112888,-0.122296 0.183444,-0.272814 0.07526,-0.150518 0.117592,-0.301036 0.04233,-0.150518 0.05644,-0.286925 0.01411,-0.136407 0.01411,-0.225777 0,-0.286925 -0.06115,-0.550332 -0.05644,-0.26811 -0.197555,-0.470369 -0.14111,-0.202258 -0.380999,-0.319851 -0.235184,-0.122296 -0.592664,-0.122296 H 47.28863 v 2.746955 q 0.05644,0.01881 0.136407,0.03293 0.07996,0.01411 0.169333,0.02352 0.08937,0.0094 0.17874,0.01411 0.09407,0.0047 0.17874,0.0047 z" />
      <path
         inkscape:connector-curvature="0"
         id="path866"
         style="font-style:normal;font-variant:normal;font-weight:bold;font-stretch:normal;font-family:'Sitka Banner';-inkscape-font-specification:'Sitka Banner Bold';stroke-width:0.265;stroke-miterlimit:4;stroke-dasharray:none"
         d="m 51.753295,73.503925 q -0.277518,0 -0.503295,-0.103481 -0.225777,-0.103481 -0.390406,-0.272814 -0.159926,-0.174037 -0.249296,-0.399814 -0.08467,-0.225777 -0.08467,-0.470369 0,-0.286925 0.09878,-0.512702 0.09878,-0.23048 0.263407,-0.404517 0.169333,-0.174036 0.385702,-0.296332 0.221074,-0.127 0.456258,-0.202259 0.239888,-0.07996 0.475073,-0.117592 0.239888,-0.03763 0.451554,-0.03763 0.04233,0 0.117592,0.0047 0.07996,0.0047 0.164629,0.01411 0.08467,0.0047 0.159926,0.0094 0.07996,0.0047 0.126999,0.0047 l 0.0047,-0.682035 q 0,-0.225777 -0.02822,-0.371591 -0.02352,-0.145815 -0.08937,-0.225777 -0.06585,-0.07996 -0.174037,-0.108185 -0.108185,-0.03293 -0.272814,-0.03293 -0.188147,0 -0.39511,0.08467 -0.206962,0.07996 -0.409221,0.197554 -0.202258,0.117593 -0.385702,0.249296 -0.17874,0.127 -0.310444,0.21637 h -0.150518 l -0.192851,-0.91722 q 0.159926,-0.07526 0.352777,-0.145814 0.197555,-0.07526 0.423332,-0.131703 0.225777,-0.06115 0.479776,-0.09407 0.253999,-0.03763 0.526813,-0.03763 0.329258,0 0.667924,0.07526 0.338666,0.07056 0.606776,0.244592 0.272814,0.174037 0.442147,0.460962 0.169332,0.286925 0.164629,0.710257 l -0.02822,2.333029 q 0,0.07056 0.02352,0.127 0.02352,0.05174 0.07055,0.09407 0.05174,0.03763 0.122296,0.06115 0.07526,0.01881 0.174037,0.01881 0.04704,0 0.159925,-0.01881 0.117592,-0.01882 0.221074,-0.04233 h 0.09407 v 0.329259 q -0.06585,0.05174 -0.192851,0.117592 -0.127,0.06585 -0.286925,0.126999 -0.159925,0.06115 -0.338666,0.103482 -0.174036,0.04233 -0.333961,0.04233 -0.206963,0 -0.380999,-0.03763 -0.174037,-0.03763 -0.30574,-0.122296 -0.127,-0.08937 -0.202259,-0.235184 -0.07055,-0.150518 -0.07055,-0.371591 v 0 q -0.174036,0.263406 -0.366888,0.418628 -0.192851,0.150518 -0.390406,0.230481 -0.192851,0.07526 -0.376295,0.09407 -0.17874,0.02352 -0.324554,0.02352 z m 0.719664,-0.710257 q 0.09878,0 0.197555,-0.01411 0.103481,-0.01882 0.202258,-0.06115 0.09878,-0.04704 0.183444,-0.117592 0.08937,-0.07526 0.159926,-0.188148 l 0.0094,-1.340551 q -0.319851,0 -0.578554,0.05644 -0.258702,0.05174 -0.442146,0.169333 -0.178741,0.117592 -0.277518,0.301036 -0.09878,0.17874 -0.09878,0.432739 0,0.221074 0.05644,0.366888 0.06115,0.145814 0.150518,0.235184 0.09407,0.08937 0.206962,0.127 0.117592,0.03293 0.230481,0.03293 z" />
      <path
         inkscape:connector-curvature="0"
         id="path868"
         style="font-style:normal;font-variant:normal;font-weight:bold;font-stretch:normal;font-family:'Sitka Banner';-inkscape-font-specification:'Sitka Banner Bold';stroke-width:0.265;stroke-miterlimit:4;stroke-dasharray:none"
         d="m 57.158347,73.546258 q -0.282221,0 -0.517405,-0.03293 -0.230481,-0.02822 -0.428036,-0.07526 -0.197555,-0.04704 -0.366888,-0.09878 -0.169333,-0.05645 -0.329258,-0.103481 v -1.340552 h 0.380999 l 0.17874,0.52211 q 0.01882,0.05644 0.05644,0.108185 0.04233,0.04704 0.08937,0.08937 0.05174,0.03763 0.103481,0.07055 0.05174,0.03293 0.09878,0.05644 0.07996,0.04233 0.202258,0.09407 0.122296,0.04704 0.263407,0.08937 0.141111,0.03763 0.282221,0.06585 0.145815,0.02822 0.272814,0.02822 0.145815,0 0.268111,-0.03293 0.126999,-0.03293 0.216369,-0.112888 0.09407,-0.07996 0.145815,-0.206963 0.05174,-0.131703 0.05174,-0.324554 0,-0.159926 -0.07526,-0.263407 -0.07526,-0.108185 -0.197555,-0.183444 -0.122296,-0.07526 -0.277517,-0.122296 -0.150518,-0.05174 -0.301036,-0.09407 -0.235185,-0.06585 -0.404518,-0.117593 -0.169332,-0.05174 -0.348073,-0.108184 -0.221073,-0.07056 -0.39511,-0.183444 -0.174036,-0.117593 -0.296332,-0.277518 -0.122296,-0.164629 -0.188147,-0.376295 -0.06115,-0.211666 -0.06115,-0.465665 0,-0.315147 0.150518,-0.578554 0.155221,-0.26811 0.423332,-0.456258 0.26811,-0.192851 0.62559,-0.296332 0.362184,-0.108185 0.776109,-0.108185 0.253999,0 0.442147,0.01411 0.192851,0.01411 0.352776,0.04233 0.164629,0.02352 0.310444,0.05645 0.145814,0.03292 0.310443,0.07055 l 0.07526,1.340551 H 58.649413 L 58.44245,69.726833 q -0.03763,-0.09878 -0.122296,-0.174037 -0.08467,-0.07996 -0.183443,-0.131703 -0.07996,-0.04233 -0.178741,-0.07526 -0.09407,-0.03763 -0.202258,-0.06585 -0.108185,-0.02822 -0.221074,-0.04233 -0.108184,-0.01882 -0.216369,-0.01882 -0.08467,0 -0.188148,0.03293 -0.103481,0.03293 -0.192851,0.103481 -0.08937,0.07056 -0.150518,0.188148 -0.06115,0.112888 -0.06115,0.277518 0,0.169332 0.05644,0.286925 0.06115,0.112888 0.155222,0.192851 0.09878,0.07526 0.21637,0.122296 0.122296,0.04704 0.244591,0.08467 0.202259,0.06585 0.380999,0.127 0.183444,0.05644 0.30574,0.09407 0.253999,0.07996 0.470369,0.188148 0.21637,0.103481 0.371591,0.249296 0.159926,0.145814 0.244592,0.343369 0.08937,0.197555 0.08937,0.465665 0,0.409221 -0.17874,0.705553 -0.174036,0.296333 -0.470369,0.489184 -0.291629,0.192851 -0.672627,0.282221 -0.376295,0.09407 -0.780813,0.09407 z" />
      <path
         inkscape:connector-curvature="0"
         id="path870"
         style="font-style:normal;font-variant:normal;font-weight:bold;font-stretch:normal;font-family:'Sitka Banner';-inkscape-font-specification:'Sitka Banner Bold';stroke-width:0.265;stroke-miterlimit:4;stroke-dasharray:none"
         d="m 60.930999,73.503925 q -0.277517,0 -0.503294,-0.103481 -0.225777,-0.103481 -0.390406,-0.272814 -0.159926,-0.174037 -0.249296,-0.399814 -0.08467,-0.225777 -0.08467,-0.470369 0,-0.286925 0.09878,-0.512702 0.09878,-0.23048 0.263407,-0.404517 0.169332,-0.174036 0.385702,-0.296332 0.221073,-0.127 0.456258,-0.202259 0.239888,-0.07996 0.475072,-0.117592 0.239889,-0.03763 0.451555,-0.03763 0.04233,0 0.117592,0.0047 0.07996,0.0047 0.164629,0.01411 0.08467,0.0047 0.159925,0.0094 0.07996,0.0047 0.127,0.0047 l 0.0047,-0.682035 q 0,-0.225777 -0.02822,-0.371591 -0.02352,-0.145815 -0.08937,-0.225777 -0.06585,-0.07996 -0.174036,-0.108185 -0.108185,-0.03293 -0.272814,-0.03293 -0.188148,0 -0.39511,0.08467 -0.206962,0.07996 -0.409221,0.197554 -0.202258,0.117593 -0.385702,0.249296 -0.17874,0.127 -0.310444,0.21637 H 60.19252 l -0.192851,-0.91722 q 0.159925,-0.07526 0.352777,-0.145814 0.197555,-0.07526 0.423332,-0.131703 0.225777,-0.06115 0.479776,-0.09407 0.253999,-0.03763 0.526813,-0.03763 0.329258,0 0.667924,0.07526 0.338665,0.07056 0.606776,0.244592 0.272814,0.174037 0.442146,0.460962 0.169333,0.286925 0.16463,0.710257 l -0.02822,2.333029 q 0,0.07056 0.02352,0.127 0.02352,0.05174 0.07055,0.09407 0.05174,0.03763 0.122296,0.06115 0.07526,0.01881 0.174037,0.01881 0.04704,0 0.159925,-0.01881 0.117592,-0.01882 0.221073,-0.04233 h 0.09407 v 0.329259 q -0.06585,0.05174 -0.192851,0.117592 -0.127,0.06585 -0.286925,0.126999 -0.159926,0.06115 -0.338666,0.103482 -0.174036,0.04233 -0.333962,0.04233 -0.206962,0 -0.380998,-0.03763 -0.174037,-0.03763 -0.30574,-0.122296 -0.127,-0.08937 -0.202259,-0.235184 -0.07056,-0.150518 -0.07056,-0.371591 v 0 q -0.174037,0.263406 -0.366888,0.418628 -0.192851,0.150518 -0.390406,0.230481 -0.192851,0.07526 -0.376295,0.09407 -0.17874,0.02352 -0.324555,0.02352 z m 0.719665,-0.710257 q 0.09878,0 0.197555,-0.01411 0.103481,-0.01882 0.202258,-0.06115 0.09878,-0.04704 0.183444,-0.117592 0.08937,-0.07526 0.159926,-0.188148 l 0.0094,-1.340551 q -0.319851,0 -0.578554,0.05644 -0.258703,0.05174 -0.442147,0.169333 -0.17874,0.117592 -0.277517,0.301036 -0.09878,0.17874 -0.09878,0.432739 0,0.221074 0.05644,0.366888 0.06115,0.145814 0.150518,0.235184 0.09407,0.08937 0.206962,0.127 0.117592,0.03293 0.230481,0.03293 z" />
      <path
         inkscape:connector-curvature="0"
         id="path872"
         style="font-style:normal;font-variant:normal;font-weight:bold;font-stretch:normal;font-family:'Sitka Banner';-inkscape-font-specification:'Sitka Banner Bold';stroke-width:0.265;stroke-miterlimit:4;stroke-dasharray:none"
         d="m 66.359572,73.503925 q -0.413925,0 -0.743183,-0.164629 -0.324555,-0.169333 -0.555036,-0.465665 -0.225777,-0.296333 -0.348073,-0.70085 -0.117592,-0.404517 -0.117592,-0.884294 0,-0.531516 0.141111,-0.997182 0.145814,-0.470368 0.413925,-0.818441 0.272813,-0.348073 0.66322,-0.550332 0.395109,-0.202259 0.898404,-0.202259 0.202259,0 0.362184,0.03763 0.164629,0.03763 0.291629,0.103481 0.131703,0.06115 0.235184,0.145814 0.108185,0.07996 0.192852,0.16463 v -0.202259 -1.54281 q 0,-0.122296 -0.05644,-0.206962 -0.05644,-0.08937 -0.23048,-0.141111 l -0.489184,-0.141111 v -0.225777 l 2.036697,-0.409221 v 6.100685 q 0,0.122296 0.05644,0.206962 0.05645,0.08467 0.235185,0.136407 l 0.432739,0.122296 v 0.225777 l -1.857957,0.409221 h -0.09407 v -0.776109 0 q -0.202258,0.277518 -0.413924,0.43274 -0.211666,0.155221 -0.404517,0.23048 -0.192852,0.07526 -0.362184,0.09407 -0.169333,0.01881 -0.286925,0.01881 z m 0.639701,-0.780812 q 0.08937,0 0.197555,-0.0047 0.108185,-0.0094 0.21637,-0.04233 0.108185,-0.03293 0.206962,-0.09878 0.103481,-0.06585 0.174037,-0.183444 v -2.878657 q -0.07056,-0.05174 -0.169333,-0.08937 -0.09878,-0.04233 -0.206963,-0.06585 -0.103481,-0.02822 -0.211666,-0.04233 -0.103481,-0.01411 -0.192851,-0.01411 -0.282221,0 -0.489183,0.131703 -0.202259,0.127 -0.338666,0.352777 -0.136407,0.221073 -0.202259,0.522109 -0.06585,0.301036 -0.06585,0.639702 0,0.404517 0.06115,0.733775 0.06115,0.324555 0.188147,0.559739 0.131704,0.230481 0.333962,0.357481 0.206962,0.122296 0.498591,0.122296 z" />
      <path
         inkscape:connector-curvature="0"
         id="path874"
         style="font-style:normal;font-variant:normal;font-weight:bold;font-stretch:normal;font-family:'Sitka Banner';-inkscape-font-specification:'Sitka Banner Bold';stroke-width:0.265;stroke-miterlimit:4;stroke-dasharray:none"
         d="m 72.343399,73.513332 q -0.507999,0 -0.931331,-0.150518 -0.418628,-0.155222 -0.724368,-0.456258 -0.301036,-0.301036 -0.470369,-0.738479 -0.164629,-0.442146 -0.164629,-1.0207 0,-0.479776 0.159926,-0.91722 0.159925,-0.442146 0.460961,-0.776108 0.301036,-0.333962 0.733776,-0.531517 0.437443,-0.202259 0.987774,-0.202259 0.465666,0 0.823146,0.155222 0.362184,0.155222 0.602072,0.404517 0.244592,0.249296 0.371591,0.57385 0.127,0.319851 0.127,0.649109 0,0.04233 -0.0047,0.112889 0,0.07055 -0.0047,0.141111 -0.0047,0.07056 -0.0094,0.136407 -0.0047,0.06115 -0.0094,0.09407 h -2.920991 q 0.0047,0.884294 0.362184,1.345255 0.362184,0.460962 1.124182,0.460962 0.249295,0 0.451554,-0.04704 0.206962,-0.04704 0.371591,-0.112889 0.164629,-0.06585 0.291629,-0.14111 0.131703,-0.07996 0.230481,-0.136407 h 0.108185 v 0.362184 q -0.155222,0.136407 -0.366888,0.277517 -0.211666,0.136407 -0.465665,0.254 -0.249296,0.117592 -0.536221,0.188147 -0.286925,0.07526 -0.597368,0.07526 z m 0.686738,-2.92099 q 0,-0.296333 -0.03293,-0.550332 -0.02822,-0.258703 -0.112888,-0.44685 -0.07996,-0.188148 -0.221073,-0.296333 -0.141111,-0.108185 -0.357481,-0.108185 -0.216369,0 -0.380999,0.09878 -0.164629,0.09407 -0.277517,0.277517 -0.112889,0.178741 -0.17874,0.442147 -0.06115,0.258703 -0.07526,0.583258 z" />
      <path
         inkscape:connector-curvature="0"
         id="path876"
         style="font-style:normal;font-variant:normal;font-weight:bold;font-stretch:normal;font-family:'Sitka Banner';-inkscape-font-specification:'Sitka Banner Bold';stroke-width:0.265;stroke-miterlimit:4;stroke-dasharray:none"
         d="m 74.742059,73.132333 0.465665,-0.150518 q 0.08937,-0.02822 0.150518,-0.09407 0.06115,-0.07056 0.06115,-0.174037 v -2.86925 q 0,-0.122296 -0.07056,-0.206962 -0.06585,-0.08467 -0.221073,-0.141111 l -0.385703,-0.141111 v -0.225777 l 1.914402,-0.371591 v 0.761997 0 q 0.183443,-0.258702 0.366887,-0.413924 0.188148,-0.159926 0.371592,-0.244592 0.183444,-0.08467 0.362184,-0.112888 0.183444,-0.02822 0.362184,-0.02822 0.30574,0 0.569146,0.09407 0.26811,0.08937 0.460962,0.286925 0.197555,0.192851 0.305739,0.503295 0.112889,0.30574 0.112889,0.733775 v 2.356548 q 0,0.117593 0.06115,0.188148 0.06585,0.06585 0.150518,0.09878 l 0.404517,0.150518 v 0.277518 h -2.502362 v -0.277518 l 0.423332,-0.150518 q 0.07996,-0.02822 0.14111,-0.09878 0.06115,-0.07055 0.06115,-0.188148 V 70.76638 q 0,-0.315147 -0.02822,-0.550332 -0.02352,-0.239888 -0.108185,-0.399813 -0.07996,-0.159926 -0.235184,-0.239888 -0.150518,-0.08467 -0.404517,-0.08467 -0.108185,0 -0.225777,0.0094 -0.117593,0.0094 -0.230481,0.04704 -0.108185,0.03763 -0.211666,0.117592 -0.103481,0.07526 -0.183444,0.206962 v 2.841028 q 0,0.108185 0.06115,0.169333 0.06115,0.06115 0.150518,0.09878 l 0.35748,0.150518 v 0.277518 h -2.507066 z" />
      <path
         inkscape:connector-curvature="0"
         id="path878"
         style="font-style:normal;font-variant:normal;font-weight:bold;font-stretch:normal;font-family:'Sitka Banner';-inkscape-font-specification:'Sitka Banner Bold';stroke-width:0.265;stroke-miterlimit:4;stroke-dasharray:none"
         d="m 81.746202,73.503925 q -0.277518,0 -0.503295,-0.103481 -0.225777,-0.103481 -0.390406,-0.272814 -0.159925,-0.174037 -0.249295,-0.399814 -0.08467,-0.225777 -0.08467,-0.470369 0,-0.286925 0.09878,-0.512702 0.09878,-0.23048 0.263406,-0.404517 0.169333,-0.174036 0.385703,-0.296332 0.221073,-0.127 0.456258,-0.202259 0.239888,-0.07996 0.475072,-0.117592 0.239888,-0.03763 0.451554,-0.03763 0.04233,0 0.117593,0.0047 0.07996,0.0047 0.164629,0.01411 0.08467,0.0047 0.159925,0.0094 0.07996,0.0047 0.127,0.0047 l 0.0047,-0.682035 q 0,-0.225777 -0.02822,-0.371591 -0.02352,-0.145815 -0.08937,-0.225777 -0.06585,-0.07996 -0.174036,-0.108185 -0.108185,-0.03293 -0.272814,-0.03293 -0.188148,0 -0.39511,0.08467 -0.206962,0.07996 -0.409221,0.197554 -0.202259,0.117593 -0.385703,0.249296 -0.17874,0.127 -0.310443,0.21637 h -0.150518 l -0.192851,-0.91722 q 0.159925,-0.07526 0.352776,-0.145814 0.197555,-0.07526 0.423332,-0.131703 0.225777,-0.06115 0.479777,-0.09407 0.253999,-0.03763 0.526813,-0.03763 0.329258,0 0.667924,0.07526 0.338665,0.07056 0.606775,0.244592 0.272814,0.174037 0.442147,0.460962 0.169333,0.286925 0.164629,0.710257 l -0.02822,2.333029 q 0,0.07056 0.02352,0.127 0.02352,0.05174 0.07056,0.09407 0.05174,0.03763 0.122296,0.06115 0.07526,0.01881 0.174036,0.01881 0.04704,0 0.159926,-0.01881 0.117592,-0.01882 0.221073,-0.04233 h 0.09407 v 0.329259 q -0.06585,0.05174 -0.192851,0.117592 -0.127,0.06585 -0.286925,0.126999 -0.159926,0.06115 -0.338666,0.103482 -0.174037,0.04233 -0.333962,0.04233 -0.206962,0 -0.380999,-0.03763 -0.174036,-0.03763 -0.305739,-0.122296 -0.127,-0.08937 -0.202259,-0.235184 -0.07055,-0.150518 -0.07055,-0.371591 v 0 q -0.174037,0.263406 -0.366888,0.418628 -0.192851,0.150518 -0.390406,0.230481 -0.192852,0.07526 -0.376295,0.09407 -0.178741,0.02352 -0.324555,0.02352 z m 0.719664,-0.710257 q 0.09878,0 0.197555,-0.01411 0.103482,-0.01882 0.202259,-0.06115 0.09878,-0.04704 0.183444,-0.117592 0.08937,-0.07526 0.159925,-0.188148 l 0.0094,-1.340551 q -0.319851,0 -0.578554,0.05644 -0.258703,0.05174 -0.442147,0.169333 -0.17874,0.117592 -0.277517,0.301036 -0.09878,0.17874 -0.09878,0.432739 0,0.221074 0.05644,0.366888 0.06115,0.145814 0.150518,0.235184 0.09407,0.08937 0.206963,0.127 0.117592,0.03293 0.23048,0.03293 z" />
    </g>
    <g
       aria-label="P"
       id="text12"
       style="font-size:50.8px;line-height:1.25;font-family:Oranienbaum;-inkscape-font-specification:Oranienbaum;fill:#ffffff;stroke-width:0.264583" />
    <g
       style="font-style:normal;font-variant:normal;font-weight:normal;font-stretch:normal;font-size:10.5833px;line-height:1.25;font-family:'Sitka Banner';-inkscape-font-specification:'Sitka Banner';stroke-width:0.264583"
       id="text13-4"
       aria-label="15">
      <path
         inkscape:connector-curvature="0"
         id="path881"
         style="font-style:normal;font-variant:normal;font-weight:bold;font-stretch:normal;font-family:'Sitka Banner';-inkscape-font-specification:'Sitka Banner Bold';fill:#2d3a82;fill-opacity:1;stroke-width:0.264583"
         d="m 85.785952,73.135339 0.799627,-0.174036 q 0.09878,-0.02352 0.150518,-0.09407 0.05174,-0.07055 0.05174,-0.174036 v -2.596436 l 0.0094,-0.634998 v 0 l -1.18533,0.272813 v -0.277517 l 1.726254,-0.84196 h 0.776109 q -0.0094,0.150518 -0.01882,0.343369 -0.0047,0.188147 -0.0094,0.390406 -0.0047,0.202259 -0.0094,0.404517 0,0.197555 0,0.357481 v 2.582325 q 0,0.108185 0.05174,0.17874 0.05644,0.06585 0.150518,0.08937 l 0.743183,0.174036 v 0.277518 h -3.236138 z" />
      <path
         inkscape:connector-curvature="0"
         id="path883"
         style="font-style:normal;font-variant:normal;font-weight:bold;font-stretch:normal;font-family:'Sitka Banner';-inkscape-font-specification:'Sitka Banner Bold';fill:#2d3a82;fill-opacity:1;stroke-width:0.264583"
         d="m 91.279676,75.30374 q -0.399813,0 -0.710257,-0.05644 -0.305739,-0.05174 -0.540924,-0.131704 -0.235184,-0.07526 -0.404517,-0.155221 -0.164629,-0.07996 -0.282221,-0.136407 l 0.188147,-0.96896 h 0.169333 q 0.108185,0.08937 0.30574,0.235184 0.202258,0.145815 0.442147,0.282222 0.244591,0.14111 0.503294,0.239888 0.263407,0.103481 0.503295,0.103481 0.282221,0 0.493887,-0.08937 0.211666,-0.08937 0.352777,-0.263407 0.141111,-0.174036 0.211666,-0.428035 0.07055,-0.254 0.07055,-0.583258 0,-0.385702 -0.126999,-0.66322 -0.127,-0.277518 -0.357481,-0.456258 -0.225777,-0.17874 -0.540924,-0.263406 -0.315147,-0.08467 -0.686738,-0.08467 -0.136407,0 -0.268111,0.01882 -0.126999,0.01411 -0.244592,0.04233 -0.112888,0.02822 -0.216369,0.06585 -0.103481,0.03293 -0.17874,0.06585 l -0.174037,-0.04233 0.338666,-3.292582 h 3.504248 v 1.063034 h -3.057398 l -0.141111,1.378181 q 0.131704,-0.04704 0.272814,-0.07526 0.141111,-0.03293 0.277518,-0.04704 0.136407,-0.01882 0.258703,-0.02352 0.122296,-0.0047 0.221073,-0.0047 0.456258,0 0.898405,0.117592 0.442147,0.112888 0.785516,0.362184 0.343369,0.244592 0.555035,0.630294 0.211666,0.380999 0.211666,0.921923 0,0.489184 -0.206962,0.898405 -0.202259,0.413924 -0.559739,0.710257 -0.352777,0.296332 -0.837257,0.460961 -0.479776,0.169333 -1.030108,0.169333 z" />
    </g>
  </g>
</svg>
