<svg xmlns="http://www.w3.org/2000/svg" width="70" height="70" viewBox="0 0 70 70" style="width: 100%; height: 100%;"><desc>Made with illustrio</desc>
  
<g class="background"><rect x="8" y="8" width="54" height="54" rx="0" ry="0" class="secondary-fill"></rect></g><g class="content"><g class="shadow" transform="matrix(1,0,0,1,-1,2)"><g fill="none" fill-rule="evenodd" stroke="none" class="secondary-fill--darken">
    
    
  </g><g fill="none" transform="translate(21.636 17.818)" stroke="none" class="secondary-fill--darken">
      <path d="M26.0909091,2.54545455 C25.739,2.54545455 25.4545455,2.83054545 25.4545455,3.18181818 L25.4545455,33.0909091 L1.90909091,33.0909091 C1.55781818,33.0909091 1.27272727,33.3753636 1.27272727,33.7272727 C1.27272727,34.0791818 1.55781818,34.3636364 1.90909091,34.3636364 L26.0909091,34.3636364 C26.4428182,34.3636364 26.7272727,34.0791818 26.7272727,33.7272727 L26.7272727,3.18181818 C26.7272727,2.83054545 26.4428182,2.54545455 26.0909091,2.54545455 L26.0909091,2.54545455 Z" fill="none" stroke="none" class="secondary-fill--darken"></path>
      <circle cx="17.182" cy="7" r="1.909" fill="none" stroke="none" class="secondary-fill--darken"></circle>
      <path d="M24.1818182,31.1818182 L24.1818182,0.636363636 C24.1818182,0.285090909 23.8973636,0 23.5454545,0 L0.636363636,0 C0.285090909,0 0,0.285090909 0,0.636363636 L0,31.1818182 C0,31.5337273 0.285090909,31.8181818 0.636363636,31.8181818 L23.5454545,31.8181818 C23.8973636,31.8181818 24.1818182,31.5337273 24.1818182,31.1818182 L24.1818182,31.1818182 Z M4.45454545,5.09090909 L10.8181818,5.09090909 C11.1694545,5.09090909 11.4545455,5.376 11.4545455,5.72727273 C11.4545455,6.07854545 11.1694545,6.36363636 10.8181818,6.36363636 L4.45454545,6.36363636 C4.10327273,6.36363636 3.81818182,6.07854545 3.81818182,5.72727273 C3.81818182,5.376 4.10327273,5.09090909 4.45454545,5.09090909 L4.45454545,5.09090909 Z M4.45454545,7.63636364 L10.8181818,7.63636364 C11.1694545,7.63636364 11.4545455,7.92145455 11.4545455,8.27272727 C11.4545455,8.624 11.1694545,8.90909091 10.8181818,8.90909091 L4.45454545,8.90909091 C4.10327273,8.90909091 3.81818182,8.624 3.81818182,8.27272727 C3.81818182,7.92145455 4.10327273,7.63636364 4.45454545,7.63636364 L4.45454545,7.63636364 Z M4.45454545,10.1818182 L10.8181818,10.1818182 C11.1694545,10.1818182 11.4545455,10.4669091 11.4545455,10.8181818 C11.4545455,11.1694545 11.1694545,11.4545455 10.8181818,11.4545455 L4.45454545,11.4545455 C4.10327273,11.4545455 3.81818182,11.1694545 3.81818182,10.8181818 C3.81818182,10.4669091 4.10327273,10.1818182 4.45454545,10.1818182 L4.45454545,10.1818182 Z M15.9090909,28 L8.27272727,28 C7.92145455,28 7.63636364,27.7155455 7.63636364,27.3636364 C7.63636364,27.0117273 7.92145455,26.7272727 8.27272727,26.7272727 L15.9090909,26.7272727 C16.261,26.7272727 16.5454545,27.0117273 16.5454545,27.3636364 C16.5454545,27.7155455 16.261,28 15.9090909,28 L15.9090909,28 Z M8.51645455,25.3756364 C8.65390909,25.1376364 8.92181818,25.0224545 9.17763636,25.0663636 C9.36790909,24.9359091 9.69754545,24.5515455 9.814,24.4153636 L9.95081818,24.2581818 C10.143,24.0430909 10.4560909,23.9832727 10.7131818,24.1143636 C10.8722727,24.1945455 10.9849091,24.3351818 11.0339091,24.4968182 C11.0440909,24.4770909 11.053,24.458 11.0606364,24.4427273 C11.1000909,24.3631818 11.137,24.2906364 11.1700909,24.2320909 C11.3202727,23.9654545 11.6403636,23.8464545 11.9286364,23.9419091 C12.0934545,23.9985455 12.222,24.1162727 12.2945455,24.2639091 C12.4014545,24.2371818 12.5153636,24.2142727 12.6362727,24.199 C12.9181818,24.1627273 13.1784545,24.3192727 13.2910909,24.5668182 C13.3260909,24.5789091 13.3687273,24.5916364 13.4037273,24.6030909 C13.6767273,24.6883636 14.133,24.8296364 14.3970909,25.3056364 C14.5676364,25.6123636 14.4562727,26.0005455 14.1482727,26.1704545 C13.8421818,26.341 13.4533636,26.2302727 13.2834545,25.9216364 C13.2675455,25.893 13.104,25.8420909 13.0257273,25.8172727 C12.8698182,25.7689091 12.6394545,25.6976364 12.4434545,25.5410909 C12.4192727,25.5487273 12.3944545,25.5550909 12.369,25.5627273 C12.2315455,25.6034545 12.0915455,25.6441818 11.9451818,25.6747273 C11.8885455,25.6868182 11.8312727,25.6887273 11.774,25.6868182 C11.4831818,26.0240909 11.0561818,26.292 10.479,26.0431818 C10.3708182,25.9973636 10.2766364,25.9381818 10.1951818,25.8694545 C9.89481818,26.1437273 9.54990909,26.3670909 9.19163636,26.3670909 C9.04590909,26.3670909 8.89827273,26.3301818 8.75,26.2449091 C8.44581818,26.0692727 8.34145455,25.6798182 8.51645455,25.3756364 L8.51645455,25.3756364 Z M19.7272727,21.6363636 L4.45454545,21.6363636 C4.10327273,21.6363636 3.81818182,21.3519091 3.81818182,21 C3.81818182,20.6480909 4.10327273,20.3636364 4.45454545,20.3636364 L19.7272727,20.3636364 C20.0791818,20.3636364 20.3636364,20.6480909 20.3636364,21 C20.3636364,21.3519091 20.0791818,21.6363636 19.7272727,21.6363636 L19.7272727,21.6363636 Z M19.7272727,19.0909091 L4.45454545,19.0909091 C4.10327273,19.0909091 3.81818182,18.8064545 3.81818182,18.4545455 C3.81818182,18.1026364 4.10327273,17.8181818 4.45454545,17.8181818 L19.7272727,17.8181818 C20.0791818,17.8181818 20.3636364,18.1026364 20.3636364,18.4545455 C20.3636364,18.8064545 20.0791818,19.0909091 19.7272727,19.0909091 L19.7272727,19.0909091 Z M18.4545455,9.912 L18.4545455,14.6363636 C18.4545455,14.9876364 18.1700909,15.2727273 17.8181818,15.2727273 C17.4662727,15.2727273 17.1818182,14.9876364 17.1818182,14.6363636 L17.1818182,13.3636364 C17.1818182,13.7149091 16.8973636,14 16.5454545,14 C16.1935455,14 15.9090909,13.7149091 15.9090909,13.3636364 L15.9090909,9.912 C14.7871818,9.41945455 14,8.30136364 14,7 C14,5.24554545 15.4273636,3.81818182 17.1818182,3.81818182 C18.9362727,3.81818182 20.3636364,5.24554545 20.3636364,7 C20.3636364,8.30136364 19.5764545,9.41945455 18.4545455,9.912 L18.4545455,9.912 Z" fill="none" stroke="none" class="secondary-fill--darken"></path>
    </g></g><g class="highlight" transform="matrix(1,0,0,1,1,-1)"><g fill="#ffffff" fill-rule="evenodd" stroke="none">
    
    
  </g><g fill="#ffffff" transform="translate(21.636 17.818)" stroke="none">
      <path d="M26.0909091,2.54545455 C25.739,2.54545455 25.4545455,2.83054545 25.4545455,3.18181818 L25.4545455,33.0909091 L1.90909091,33.0909091 C1.55781818,33.0909091 1.27272727,33.3753636 1.27272727,33.7272727 C1.27272727,34.0791818 1.55781818,34.3636364 1.90909091,34.3636364 L26.0909091,34.3636364 C26.4428182,34.3636364 26.7272727,34.0791818 26.7272727,33.7272727 L26.7272727,3.18181818 C26.7272727,2.83054545 26.4428182,2.54545455 26.0909091,2.54545455 L26.0909091,2.54545455 Z" fill="#ffffff" stroke="none"></path>
      <circle cx="17.182" cy="7" r="1.909" fill="#ffffff" stroke="none"></circle>
      <path d="M24.1818182,31.1818182 L24.1818182,0.636363636 C24.1818182,0.285090909 23.8973636,0 23.5454545,0 L0.636363636,0 C0.285090909,0 0,0.285090909 0,0.636363636 L0,31.1818182 C0,31.5337273 0.285090909,31.8181818 0.636363636,31.8181818 L23.5454545,31.8181818 C23.8973636,31.8181818 24.1818182,31.5337273 24.1818182,31.1818182 L24.1818182,31.1818182 Z M4.45454545,5.09090909 L10.8181818,5.09090909 C11.1694545,5.09090909 11.4545455,5.376 11.4545455,5.72727273 C11.4545455,6.07854545 11.1694545,6.36363636 10.8181818,6.36363636 L4.45454545,6.36363636 C4.10327273,6.36363636 3.81818182,6.07854545 3.81818182,5.72727273 C3.81818182,5.376 4.10327273,5.09090909 4.45454545,5.09090909 L4.45454545,5.09090909 Z M4.45454545,7.63636364 L10.8181818,7.63636364 C11.1694545,7.63636364 11.4545455,7.92145455 11.4545455,8.27272727 C11.4545455,8.624 11.1694545,8.90909091 10.8181818,8.90909091 L4.45454545,8.90909091 C4.10327273,8.90909091 3.81818182,8.624 3.81818182,8.27272727 C3.81818182,7.92145455 4.10327273,7.63636364 4.45454545,7.63636364 L4.45454545,7.63636364 Z M4.45454545,10.1818182 L10.8181818,10.1818182 C11.1694545,10.1818182 11.4545455,10.4669091 11.4545455,10.8181818 C11.4545455,11.1694545 11.1694545,11.4545455 10.8181818,11.4545455 L4.45454545,11.4545455 C4.10327273,11.4545455 3.81818182,11.1694545 3.81818182,10.8181818 C3.81818182,10.4669091 4.10327273,10.1818182 4.45454545,10.1818182 L4.45454545,10.1818182 Z M15.9090909,28 L8.27272727,28 C7.92145455,28 7.63636364,27.7155455 7.63636364,27.3636364 C7.63636364,27.0117273 7.92145455,26.7272727 8.27272727,26.7272727 L15.9090909,26.7272727 C16.261,26.7272727 16.5454545,27.0117273 16.5454545,27.3636364 C16.5454545,27.7155455 16.261,28 15.9090909,28 L15.9090909,28 Z M8.51645455,25.3756364 C8.65390909,25.1376364 8.92181818,25.0224545 9.17763636,25.0663636 C9.36790909,24.9359091 9.69754545,24.5515455 9.814,24.4153636 L9.95081818,24.2581818 C10.143,24.0430909 10.4560909,23.9832727 10.7131818,24.1143636 C10.8722727,24.1945455 10.9849091,24.3351818 11.0339091,24.4968182 C11.0440909,24.4770909 11.053,24.458 11.0606364,24.4427273 C11.1000909,24.3631818 11.137,24.2906364 11.1700909,24.2320909 C11.3202727,23.9654545 11.6403636,23.8464545 11.9286364,23.9419091 C12.0934545,23.9985455 12.222,24.1162727 12.2945455,24.2639091 C12.4014545,24.2371818 12.5153636,24.2142727 12.6362727,24.199 C12.9181818,24.1627273 13.1784545,24.3192727 13.2910909,24.5668182 C13.3260909,24.5789091 13.3687273,24.5916364 13.4037273,24.6030909 C13.6767273,24.6883636 14.133,24.8296364 14.3970909,25.3056364 C14.5676364,25.6123636 14.4562727,26.0005455 14.1482727,26.1704545 C13.8421818,26.341 13.4533636,26.2302727 13.2834545,25.9216364 C13.2675455,25.893 13.104,25.8420909 13.0257273,25.8172727 C12.8698182,25.7689091 12.6394545,25.6976364 12.4434545,25.5410909 C12.4192727,25.5487273 12.3944545,25.5550909 12.369,25.5627273 C12.2315455,25.6034545 12.0915455,25.6441818 11.9451818,25.6747273 C11.8885455,25.6868182 11.8312727,25.6887273 11.774,25.6868182 C11.4831818,26.0240909 11.0561818,26.292 10.479,26.0431818 C10.3708182,25.9973636 10.2766364,25.9381818 10.1951818,25.8694545 C9.89481818,26.1437273 9.54990909,26.3670909 9.19163636,26.3670909 C9.04590909,26.3670909 8.89827273,26.3301818 8.75,26.2449091 C8.44581818,26.0692727 8.34145455,25.6798182 8.51645455,25.3756364 L8.51645455,25.3756364 Z M19.7272727,21.6363636 L4.45454545,21.6363636 C4.10327273,21.6363636 3.81818182,21.3519091 3.81818182,21 C3.81818182,20.6480909 4.10327273,20.3636364 4.45454545,20.3636364 L19.7272727,20.3636364 C20.0791818,20.3636364 20.3636364,20.6480909 20.3636364,21 C20.3636364,21.3519091 20.0791818,21.6363636 19.7272727,21.6363636 L19.7272727,21.6363636 Z M19.7272727,19.0909091 L4.45454545,19.0909091 C4.10327273,19.0909091 3.81818182,18.8064545 3.81818182,18.4545455 C3.81818182,18.1026364 4.10327273,17.8181818 4.45454545,17.8181818 L19.7272727,17.8181818 C20.0791818,17.8181818 20.3636364,18.1026364 20.3636364,18.4545455 C20.3636364,18.8064545 20.0791818,19.0909091 19.7272727,19.0909091 L19.7272727,19.0909091 Z M18.4545455,9.912 L18.4545455,14.6363636 C18.4545455,14.9876364 18.1700909,15.2727273 17.8181818,15.2727273 C17.4662727,15.2727273 17.1818182,14.9876364 17.1818182,14.6363636 L17.1818182,13.3636364 C17.1818182,13.7149091 16.8973636,14 16.5454545,14 C16.1935455,14 15.9090909,13.7149091 15.9090909,13.3636364 L15.9090909,9.912 C14.7871818,9.41945455 14,8.30136364 14,7 C14,5.24554545 15.4273636,3.81818182 17.1818182,3.81818182 C18.9362727,3.81818182 20.3636364,5.24554545 20.3636364,7 C20.3636364,8.30136364 19.5764545,9.41945455 18.4545455,9.912 L18.4545455,9.912 Z" fill="#ffffff" stroke="none"></path>
    </g></g><g class="base"><g fill="none" fill-rule="evenodd" stroke="none" class="main-fill">
    
    
  </g><g fill="none" transform="translate(21.636 17.818)" stroke="none" class="main-fill">
      <path d="M26.0909091,2.54545455 C25.739,2.54545455 25.4545455,2.83054545 25.4545455,3.18181818 L25.4545455,33.0909091 L1.90909091,33.0909091 C1.55781818,33.0909091 1.27272727,33.3753636 1.27272727,33.7272727 C1.27272727,34.0791818 1.55781818,34.3636364 1.90909091,34.3636364 L26.0909091,34.3636364 C26.4428182,34.3636364 26.7272727,34.0791818 26.7272727,33.7272727 L26.7272727,3.18181818 C26.7272727,2.83054545 26.4428182,2.54545455 26.0909091,2.54545455 L26.0909091,2.54545455 Z" fill="none" stroke="none" class="main-fill"></path>
      <circle cx="17.182" cy="7" r="1.909" fill="none" stroke="none" class="main-fill"></circle>
      <path d="M24.1818182,31.1818182 L24.1818182,0.636363636 C24.1818182,0.285090909 23.8973636,0 23.5454545,0 L0.636363636,0 C0.285090909,0 0,0.285090909 0,0.636363636 L0,31.1818182 C0,31.5337273 0.285090909,31.8181818 0.636363636,31.8181818 L23.5454545,31.8181818 C23.8973636,31.8181818 24.1818182,31.5337273 24.1818182,31.1818182 L24.1818182,31.1818182 Z M4.45454545,5.09090909 L10.8181818,5.09090909 C11.1694545,5.09090909 11.4545455,5.376 11.4545455,5.72727273 C11.4545455,6.07854545 11.1694545,6.36363636 10.8181818,6.36363636 L4.45454545,6.36363636 C4.10327273,6.36363636 3.81818182,6.07854545 3.81818182,5.72727273 C3.81818182,5.376 4.10327273,5.09090909 4.45454545,5.09090909 L4.45454545,5.09090909 Z M4.45454545,7.63636364 L10.8181818,7.63636364 C11.1694545,7.63636364 11.4545455,7.92145455 11.4545455,8.27272727 C11.4545455,8.624 11.1694545,8.90909091 10.8181818,8.90909091 L4.45454545,8.90909091 C4.10327273,8.90909091 3.81818182,8.624 3.81818182,8.27272727 C3.81818182,7.92145455 4.10327273,7.63636364 4.45454545,7.63636364 L4.45454545,7.63636364 Z M4.45454545,10.1818182 L10.8181818,10.1818182 C11.1694545,10.1818182 11.4545455,10.4669091 11.4545455,10.8181818 C11.4545455,11.1694545 11.1694545,11.4545455 10.8181818,11.4545455 L4.45454545,11.4545455 C4.10327273,11.4545455 3.81818182,11.1694545 3.81818182,10.8181818 C3.81818182,10.4669091 4.10327273,10.1818182 4.45454545,10.1818182 L4.45454545,10.1818182 Z M15.9090909,28 L8.27272727,28 C7.92145455,28 7.63636364,27.7155455 7.63636364,27.3636364 C7.63636364,27.0117273 7.92145455,26.7272727 8.27272727,26.7272727 L15.9090909,26.7272727 C16.261,26.7272727 16.5454545,27.0117273 16.5454545,27.3636364 C16.5454545,27.7155455 16.261,28 15.9090909,28 L15.9090909,28 Z M8.51645455,25.3756364 C8.65390909,25.1376364 8.92181818,25.0224545 9.17763636,25.0663636 C9.36790909,24.9359091 9.69754545,24.5515455 9.814,24.4153636 L9.95081818,24.2581818 C10.143,24.0430909 10.4560909,23.9832727 10.7131818,24.1143636 C10.8722727,24.1945455 10.9849091,24.3351818 11.0339091,24.4968182 C11.0440909,24.4770909 11.053,24.458 11.0606364,24.4427273 C11.1000909,24.3631818 11.137,24.2906364 11.1700909,24.2320909 C11.3202727,23.9654545 11.6403636,23.8464545 11.9286364,23.9419091 C12.0934545,23.9985455 12.222,24.1162727 12.2945455,24.2639091 C12.4014545,24.2371818 12.5153636,24.2142727 12.6362727,24.199 C12.9181818,24.1627273 13.1784545,24.3192727 13.2910909,24.5668182 C13.3260909,24.5789091 13.3687273,24.5916364 13.4037273,24.6030909 C13.6767273,24.6883636 14.133,24.8296364 14.3970909,25.3056364 C14.5676364,25.6123636 14.4562727,26.0005455 14.1482727,26.1704545 C13.8421818,26.341 13.4533636,26.2302727 13.2834545,25.9216364 C13.2675455,25.893 13.104,25.8420909 13.0257273,25.8172727 C12.8698182,25.7689091 12.6394545,25.6976364 12.4434545,25.5410909 C12.4192727,25.5487273 12.3944545,25.5550909 12.369,25.5627273 C12.2315455,25.6034545 12.0915455,25.6441818 11.9451818,25.6747273 C11.8885455,25.6868182 11.8312727,25.6887273 11.774,25.6868182 C11.4831818,26.0240909 11.0561818,26.292 10.479,26.0431818 C10.3708182,25.9973636 10.2766364,25.9381818 10.1951818,25.8694545 C9.89481818,26.1437273 9.54990909,26.3670909 9.19163636,26.3670909 C9.04590909,26.3670909 8.89827273,26.3301818 8.75,26.2449091 C8.44581818,26.0692727 8.34145455,25.6798182 8.51645455,25.3756364 L8.51645455,25.3756364 Z M19.7272727,21.6363636 L4.45454545,21.6363636 C4.10327273,21.6363636 3.81818182,21.3519091 3.81818182,21 C3.81818182,20.6480909 4.10327273,20.3636364 4.45454545,20.3636364 L19.7272727,20.3636364 C20.0791818,20.3636364 20.3636364,20.6480909 20.3636364,21 C20.3636364,21.3519091 20.0791818,21.6363636 19.7272727,21.6363636 L19.7272727,21.6363636 Z M19.7272727,19.0909091 L4.45454545,19.0909091 C4.10327273,19.0909091 3.81818182,18.8064545 3.81818182,18.4545455 C3.81818182,18.1026364 4.10327273,17.8181818 4.45454545,17.8181818 L19.7272727,17.8181818 C20.0791818,17.8181818 20.3636364,18.1026364 20.3636364,18.4545455 C20.3636364,18.8064545 20.0791818,19.0909091 19.7272727,19.0909091 L19.7272727,19.0909091 Z M18.4545455,9.912 L18.4545455,14.6363636 C18.4545455,14.9876364 18.1700909,15.2727273 17.8181818,15.2727273 C17.4662727,15.2727273 17.1818182,14.9876364 17.1818182,14.6363636 L17.1818182,13.3636364 C17.1818182,13.7149091 16.8973636,14 16.5454545,14 C16.1935455,14 15.9090909,13.7149091 15.9090909,13.3636364 L15.9090909,9.912 C14.7871818,9.41945455 14,8.30136364 14,7 C14,5.24554545 15.4273636,3.81818182 17.1818182,3.81818182 C18.9362727,3.81818182 20.3636364,5.24554545 20.3636364,7 C20.3636364,8.30136364 19.5764545,9.41945455 18.4545455,9.912 L18.4545455,9.912 Z" fill="none" stroke="none" class="main-fill"></path>
    </g></g></g><style>
          .main-fill {fill: #050a46;}
          .main-stroke {stroke: #050a46;}
          .secondary-fill {fill: #fff;}
          .secondary-stroke {stroke: #fff;}

          .main-fill--darken {fill: #000000;}
          .main-stroke--darken {stroke: #000000;}
          .secondary-fill--darken {fill: #d9d9d9;}
          .secondary-stroke--darken {stroke: #d9d9d9;}

          .main-fill--darkener {fill: #000000;}
          .main-stroke--darkener {stroke: #000000;}
          .secondary-fill--darkener {fill: #bfbfbf;}
          .secondary-stroke--darkener {stroke: #bfbfbf;}
        </style></svg>