<svg xmlns="http://www.w3.org/2000/svg" width="70" height="70" viewBox="0 0 70 70" style="width: 100%; height: 100%;"><desc>Made with illustrio</desc>
  
<g class="background"><rect x="8" y="8" width="54" height="54" rx="0" ry="0" class="secondary-fill"></rect></g><g class="content"><g class="shadow" transform="matrix(1,0,0,1,-1,2)"><g fill="none" fill-rule="evenodd" stroke="none" class="secondary-fill--darken">
    
    
  </g><g fill="none" transform="translate(18.455 18.455)" stroke="none" class="secondary-fill--darken">
      <path d="M16.5454545,3.42554545 C15.6672727,3.42554545 14.9532727,4.14018182 14.9532727,5.01772727 C14.9532727,5.89527273 15.6679091,6.60990909 16.5454545,6.60990909 C17.423,6.60990909 18.1376364,5.89527273 18.1376364,5.01772727 C18.1376364,4.14018182 17.423,3.42554545 16.5454545,3.42554545 L16.5454545,3.42554545 Z" fill="none" stroke="none" class="secondary-fill--darken"></path>
      <circle cx="7.374" cy="23.36" r="1.592" fill="none" stroke="none" class="secondary-fill--darken"></circle>
      <path d="M25.7167273,21.7680909 C24.8385455,21.7680909 24.1245455,22.4827273 24.1245455,23.3609091 C24.1245455,24.2390909 24.8385455,24.9530909 25.7167273,24.9530909 C26.5942727,24.9530909 27.3089091,24.2390909 27.3089091,23.3609091 C27.3089091,22.4827273 26.5942727,21.7680909 25.7167273,21.7680909 L25.7167273,21.7680909 Z" fill="none" stroke="none" class="secondary-fill--darken"></path>
      <path d="M0,0 L0,33.0909091 L33.0909091,33.0909091 L33.0909091,0 L0,0 L0,0 Z M10.8137273,29.7932727 C10.4268182,29.7932727 10.1130909,29.4801818 10.1130909,29.0926364 C10.1130909,27.5825455 8.88490909,26.3537273 7.37418182,26.3537273 C5.86409091,26.3537273 4.63527273,27.5825455 4.63527273,29.0926364 C4.63527273,29.4795455 4.32154545,29.7932727 3.93463636,29.7932727 C3.54772727,29.7932727 3.234,29.4801818 3.234,29.0926364 C3.234,27.5640909 4.06827273,26.2309091 5.30345455,25.5130909 C4.73645455,24.9683636 4.38009091,24.2066364 4.38009091,23.3602727 C4.38009091,21.7095455 5.72345455,20.3668182 7.37354545,20.3668182 C9.02427273,20.3668182 10.367,21.7095455 10.367,23.3602727 C10.367,24.2066364 10.0106364,24.9677273 9.44427273,25.5130909 C10.6794545,26.2296364 11.5137273,27.5640909 11.5137273,29.0926364 C11.5143636,29.4801818 11.2006364,29.7932727 10.8137273,29.7932727 L10.8137273,29.7932727 Z M20.4800909,21.5631818 C20.3432727,21.7 20.1644545,21.7680909 19.985,21.7680909 C19.8061818,21.7680909 19.6267273,21.7 19.4899091,21.5631818 L16.5454545,18.6193636 L13.6016364,21.5631818 C13.4648182,21.7 13.2853636,21.7680909 13.1059091,21.7680909 C12.9270909,21.7680909 12.7476364,21.7 12.6108182,21.5631818 C12.3371818,21.2895455 12.3371818,20.846 12.6108182,20.5723636 L15.8448182,17.3383636 L15.8448182,13.0429091 C15.8448182,12.656 16.1585455,12.3422727 16.5454545,12.3422727 C16.9323636,12.3422727 17.2460909,12.656 17.2460909,13.0429091 L17.2460909,17.3383636 L20.4800909,20.5723636 C20.7537273,20.846 20.7537273,21.2895455 20.4800909,21.5631818 L20.4800909,21.5631818 Z M19.9843636,11.4507273 C19.5974545,11.4507273 19.2837273,11.137 19.2837273,10.7500909 C19.2837273,9.24 18.0549091,8.01118182 16.5448182,8.01118182 C15.0340909,8.01118182 13.8059091,9.24 13.8059091,10.7500909 C13.8059091,11.137 13.4921818,11.4507273 13.1052727,11.4507273 C12.7183636,11.4507273 12.4046364,11.137 12.4046364,10.7500909 C12.4046364,9.22218182 13.2389091,7.88836364 14.4734545,7.17054545 C13.9070909,6.62581818 13.5507273,5.86409091 13.5507273,5.01772727 C13.5507273,3.367 14.8934545,2.02427273 16.5441818,2.02427273 C18.1942727,2.02427273 19.5376364,3.367 19.5376364,5.01772727 C19.5376364,5.86409091 19.1806364,6.62518182 18.6149091,7.16990909 C19.8500909,7.88709091 20.6843636,9.22154545 20.6843636,10.7494545 C20.6856364,11.137 20.3719091,11.4507273 19.9843636,11.4507273 L19.9843636,11.4507273 Z M29.1556364,29.7932727 C28.7687273,29.7932727 28.455,29.4801818 28.455,29.0926364 C28.455,27.5825455 27.2261818,26.3537273 25.7160909,26.3537273 C24.206,26.3537273 22.9771818,27.5825455 22.9771818,29.0926364 C22.9771818,29.4795455 22.6640909,29.7932727 22.2759091,29.7932727 C21.889,29.7932727 21.5752727,29.4801818 21.5752727,29.0926364 C21.5752727,27.5640909 22.4095455,26.2296364 23.6440909,25.5130909 C23.0783636,24.9683636 22.722,24.206 22.722,23.3602727 C22.722,21.7095455 24.0647273,20.3668182 25.7154545,20.3668182 C27.3655455,20.3668182 28.7082727,21.7095455 28.7082727,23.3602727 C28.7082727,24.206 28.3519091,24.9677273 27.7861818,25.5130909 C29.0207273,26.2296364 29.855,27.5640909 29.855,29.0926364 C29.8562727,29.4801818 29.5431818,29.7932727 29.1556364,29.7932727 L29.1556364,29.7932727 Z" fill="none" stroke="none" class="secondary-fill--darken"></path>
    </g></g><g class="highlight" transform="matrix(1,0,0,1,1,-1)"><g fill="#ffffff" fill-rule="evenodd" stroke="none">
    
    
  </g><g fill="#ffffff" transform="translate(18.455 18.455)" stroke="none">
      <path d="M16.5454545,3.42554545 C15.6672727,3.42554545 14.9532727,4.14018182 14.9532727,5.01772727 C14.9532727,5.89527273 15.6679091,6.60990909 16.5454545,6.60990909 C17.423,6.60990909 18.1376364,5.89527273 18.1376364,5.01772727 C18.1376364,4.14018182 17.423,3.42554545 16.5454545,3.42554545 L16.5454545,3.42554545 Z" fill="#ffffff" stroke="none"></path>
      <circle cx="7.374" cy="23.36" r="1.592" fill="#ffffff" stroke="none"></circle>
      <path d="M25.7167273,21.7680909 C24.8385455,21.7680909 24.1245455,22.4827273 24.1245455,23.3609091 C24.1245455,24.2390909 24.8385455,24.9530909 25.7167273,24.9530909 C26.5942727,24.9530909 27.3089091,24.2390909 27.3089091,23.3609091 C27.3089091,22.4827273 26.5942727,21.7680909 25.7167273,21.7680909 L25.7167273,21.7680909 Z" fill="#ffffff" stroke="none"></path>
      <path d="M0,0 L0,33.0909091 L33.0909091,33.0909091 L33.0909091,0 L0,0 L0,0 Z M10.8137273,29.7932727 C10.4268182,29.7932727 10.1130909,29.4801818 10.1130909,29.0926364 C10.1130909,27.5825455 8.88490909,26.3537273 7.37418182,26.3537273 C5.86409091,26.3537273 4.63527273,27.5825455 4.63527273,29.0926364 C4.63527273,29.4795455 4.32154545,29.7932727 3.93463636,29.7932727 C3.54772727,29.7932727 3.234,29.4801818 3.234,29.0926364 C3.234,27.5640909 4.06827273,26.2309091 5.30345455,25.5130909 C4.73645455,24.9683636 4.38009091,24.2066364 4.38009091,23.3602727 C4.38009091,21.7095455 5.72345455,20.3668182 7.37354545,20.3668182 C9.02427273,20.3668182 10.367,21.7095455 10.367,23.3602727 C10.367,24.2066364 10.0106364,24.9677273 9.44427273,25.5130909 C10.6794545,26.2296364 11.5137273,27.5640909 11.5137273,29.0926364 C11.5143636,29.4801818 11.2006364,29.7932727 10.8137273,29.7932727 L10.8137273,29.7932727 Z M20.4800909,21.5631818 C20.3432727,21.7 20.1644545,21.7680909 19.985,21.7680909 C19.8061818,21.7680909 19.6267273,21.7 19.4899091,21.5631818 L16.5454545,18.6193636 L13.6016364,21.5631818 C13.4648182,21.7 13.2853636,21.7680909 13.1059091,21.7680909 C12.9270909,21.7680909 12.7476364,21.7 12.6108182,21.5631818 C12.3371818,21.2895455 12.3371818,20.846 12.6108182,20.5723636 L15.8448182,17.3383636 L15.8448182,13.0429091 C15.8448182,12.656 16.1585455,12.3422727 16.5454545,12.3422727 C16.9323636,12.3422727 17.2460909,12.656 17.2460909,13.0429091 L17.2460909,17.3383636 L20.4800909,20.5723636 C20.7537273,20.846 20.7537273,21.2895455 20.4800909,21.5631818 L20.4800909,21.5631818 Z M19.9843636,11.4507273 C19.5974545,11.4507273 19.2837273,11.137 19.2837273,10.7500909 C19.2837273,9.24 18.0549091,8.01118182 16.5448182,8.01118182 C15.0340909,8.01118182 13.8059091,9.24 13.8059091,10.7500909 C13.8059091,11.137 13.4921818,11.4507273 13.1052727,11.4507273 C12.7183636,11.4507273 12.4046364,11.137 12.4046364,10.7500909 C12.4046364,9.22218182 13.2389091,7.88836364 14.4734545,7.17054545 C13.9070909,6.62581818 13.5507273,5.86409091 13.5507273,5.01772727 C13.5507273,3.367 14.8934545,2.02427273 16.5441818,2.02427273 C18.1942727,2.02427273 19.5376364,3.367 19.5376364,5.01772727 C19.5376364,5.86409091 19.1806364,6.62518182 18.6149091,7.16990909 C19.8500909,7.88709091 20.6843636,9.22154545 20.6843636,10.7494545 C20.6856364,11.137 20.3719091,11.4507273 19.9843636,11.4507273 L19.9843636,11.4507273 Z M29.1556364,29.7932727 C28.7687273,29.7932727 28.455,29.4801818 28.455,29.0926364 C28.455,27.5825455 27.2261818,26.3537273 25.7160909,26.3537273 C24.206,26.3537273 22.9771818,27.5825455 22.9771818,29.0926364 C22.9771818,29.4795455 22.6640909,29.7932727 22.2759091,29.7932727 C21.889,29.7932727 21.5752727,29.4801818 21.5752727,29.0926364 C21.5752727,27.5640909 22.4095455,26.2296364 23.6440909,25.5130909 C23.0783636,24.9683636 22.722,24.206 22.722,23.3602727 C22.722,21.7095455 24.0647273,20.3668182 25.7154545,20.3668182 C27.3655455,20.3668182 28.7082727,21.7095455 28.7082727,23.3602727 C28.7082727,24.206 28.3519091,24.9677273 27.7861818,25.5130909 C29.0207273,26.2296364 29.855,27.5640909 29.855,29.0926364 C29.8562727,29.4801818 29.5431818,29.7932727 29.1556364,29.7932727 L29.1556364,29.7932727 Z" fill="#ffffff" stroke="none"></path>
    </g></g><g class="base"><g fill="none" fill-rule="evenodd" stroke="none" class="main-fill">
    
    
  </g><g fill="none" transform="translate(18.455 18.455)" stroke="none" class="main-fill">
      <path d="M16.5454545,3.42554545 C15.6672727,3.42554545 14.9532727,4.14018182 14.9532727,5.01772727 C14.9532727,5.89527273 15.6679091,6.60990909 16.5454545,6.60990909 C17.423,6.60990909 18.1376364,5.89527273 18.1376364,5.01772727 C18.1376364,4.14018182 17.423,3.42554545 16.5454545,3.42554545 L16.5454545,3.42554545 Z" fill="none" stroke="none" class="main-fill"></path>
      <circle cx="7.374" cy="23.36" r="1.592" fill="none" stroke="none" class="main-fill"></circle>
      <path d="M25.7167273,21.7680909 C24.8385455,21.7680909 24.1245455,22.4827273 24.1245455,23.3609091 C24.1245455,24.2390909 24.8385455,24.9530909 25.7167273,24.9530909 C26.5942727,24.9530909 27.3089091,24.2390909 27.3089091,23.3609091 C27.3089091,22.4827273 26.5942727,21.7680909 25.7167273,21.7680909 L25.7167273,21.7680909 Z" fill="none" stroke="none" class="main-fill"></path>
      <path d="M0,0 L0,33.0909091 L33.0909091,33.0909091 L33.0909091,0 L0,0 L0,0 Z M10.8137273,29.7932727 C10.4268182,29.7932727 10.1130909,29.4801818 10.1130909,29.0926364 C10.1130909,27.5825455 8.88490909,26.3537273 7.37418182,26.3537273 C5.86409091,26.3537273 4.63527273,27.5825455 4.63527273,29.0926364 C4.63527273,29.4795455 4.32154545,29.7932727 3.93463636,29.7932727 C3.54772727,29.7932727 3.234,29.4801818 3.234,29.0926364 C3.234,27.5640909 4.06827273,26.2309091 5.30345455,25.5130909 C4.73645455,24.9683636 4.38009091,24.2066364 4.38009091,23.3602727 C4.38009091,21.7095455 5.72345455,20.3668182 7.37354545,20.3668182 C9.02427273,20.3668182 10.367,21.7095455 10.367,23.3602727 C10.367,24.2066364 10.0106364,24.9677273 9.44427273,25.5130909 C10.6794545,26.2296364 11.5137273,27.5640909 11.5137273,29.0926364 C11.5143636,29.4801818 11.2006364,29.7932727 10.8137273,29.7932727 L10.8137273,29.7932727 Z M20.4800909,21.5631818 C20.3432727,21.7 20.1644545,21.7680909 19.985,21.7680909 C19.8061818,21.7680909 19.6267273,21.7 19.4899091,21.5631818 L16.5454545,18.6193636 L13.6016364,21.5631818 C13.4648182,21.7 13.2853636,21.7680909 13.1059091,21.7680909 C12.9270909,21.7680909 12.7476364,21.7 12.6108182,21.5631818 C12.3371818,21.2895455 12.3371818,20.846 12.6108182,20.5723636 L15.8448182,17.3383636 L15.8448182,13.0429091 C15.8448182,12.656 16.1585455,12.3422727 16.5454545,12.3422727 C16.9323636,12.3422727 17.2460909,12.656 17.2460909,13.0429091 L17.2460909,17.3383636 L20.4800909,20.5723636 C20.7537273,20.846 20.7537273,21.2895455 20.4800909,21.5631818 L20.4800909,21.5631818 Z M19.9843636,11.4507273 C19.5974545,11.4507273 19.2837273,11.137 19.2837273,10.7500909 C19.2837273,9.24 18.0549091,8.01118182 16.5448182,8.01118182 C15.0340909,8.01118182 13.8059091,9.24 13.8059091,10.7500909 C13.8059091,11.137 13.4921818,11.4507273 13.1052727,11.4507273 C12.7183636,11.4507273 12.4046364,11.137 12.4046364,10.7500909 C12.4046364,9.22218182 13.2389091,7.88836364 14.4734545,7.17054545 C13.9070909,6.62581818 13.5507273,5.86409091 13.5507273,5.01772727 C13.5507273,3.367 14.8934545,2.02427273 16.5441818,2.02427273 C18.1942727,2.02427273 19.5376364,3.367 19.5376364,5.01772727 C19.5376364,5.86409091 19.1806364,6.62518182 18.6149091,7.16990909 C19.8500909,7.88709091 20.6843636,9.22154545 20.6843636,10.7494545 C20.6856364,11.137 20.3719091,11.4507273 19.9843636,11.4507273 L19.9843636,11.4507273 Z M29.1556364,29.7932727 C28.7687273,29.7932727 28.455,29.4801818 28.455,29.0926364 C28.455,27.5825455 27.2261818,26.3537273 25.7160909,26.3537273 C24.206,26.3537273 22.9771818,27.5825455 22.9771818,29.0926364 C22.9771818,29.4795455 22.6640909,29.7932727 22.2759091,29.7932727 C21.889,29.7932727 21.5752727,29.4801818 21.5752727,29.0926364 C21.5752727,27.5640909 22.4095455,26.2296364 23.6440909,25.5130909 C23.0783636,24.9683636 22.722,24.206 22.722,23.3602727 C22.722,21.7095455 24.0647273,20.3668182 25.7154545,20.3668182 C27.3655455,20.3668182 28.7082727,21.7095455 28.7082727,23.3602727 C28.7082727,24.206 28.3519091,24.9677273 27.7861818,25.5130909 C29.0207273,26.2296364 29.855,27.5640909 29.855,29.0926364 C29.8562727,29.4801818 29.5431818,29.7932727 29.1556364,29.7932727 L29.1556364,29.7932727 Z" fill="none" stroke="none" class="main-fill"></path>
    </g></g></g><style>
          .main-fill {fill: #050a46;}
          .main-stroke {stroke: #050a46;}
          .secondary-fill {fill: #fff;}
          .secondary-stroke {stroke: #fff;}

          .main-fill--darken {fill: #000000;}
          .main-stroke--darken {stroke: #000000;}
          .secondary-fill--darken {fill: #d9d9d9;}
          .secondary-stroke--darken {stroke: #d9d9d9;}

          .main-fill--darkener {fill: #000000;}
          .main-stroke--darkener {stroke: #000000;}
          .secondary-fill--darkener {fill: #bfbfbf;}
          .secondary-stroke--darkener {stroke: #bfbfbf;}
        </style></svg>