<svg xmlns="http://www.w3.org/2000/svg" width="70" height="70" viewBox="0 0 70 70" style="width: 100%; height: 100%;"><desc>Made with illustrio</desc>
  
<g class="background"><rect x="8" y="8" width="54" height="54" rx="0" ry="0" class="secondary-fill"></rect></g><g class="content"><g class="shadow" transform="matrix(1,0,0,1,-1,2)"><g fill="none" fill-rule="evenodd" stroke="none" class="secondary-fill--darken">
    
    <path fill="none" d="M26.0909091,24.1818182 C29.2491818,24.1818182 31.8181818,21.6128182 31.8181818,18.4545455 C31.8181818,18.3711818 31.8003636,18.2922727 31.7710909,18.2190909 L31.773,18.2184545 L31.7685455,18.207 L31.7679091,18.2063636 L26.6820909,5.49054545 C26.5847273,5.24936364 26.3511818,5.09090909 26.0909091,5.09090909 L19.026,5.09090909 C18.7727273,3.84618182 17.7901818,2.86363636 16.5454545,2.60972727 L16.5454545,0.636363636 C16.5454545,0.285090909 16.2603636,0 15.9090909,0 C15.5578182,0 15.2727273,0.285090909 15.2727273,0.636363636 L15.2727273,2.60972727 C14.028,2.86363636 13.0454545,3.84618182 12.7915455,5.09090909 L5.72727273,5.09090909 C5.467,5.09090909 5.23345455,5.24936364 5.13609091,5.49054545 L0.0502727273,18.2063636 L0.0502727273,18.2063636 L0.0458181818,18.2184545 L0.0477272727,18.2190909 C0.0184545455,18.2922727 0,18.3711818 0,18.4545455 C0,21.6128182 2.56963636,24.1818182 5.72727273,24.1818182 C8.88490909,24.1818182 11.4545455,21.6128182 11.4545455,18.4545455 C11.4545455,18.3711818 11.4360909,18.2922727 11.4068182,18.2190909 L11.4087273,18.2184545 L11.4042727,18.2063636 L11.4042727,18.2063636 L6.66781818,6.36363636 L12.7921818,6.36363636 C13.0460909,7.60836364 14.0286364,8.59090909 15.2733636,8.84481818 L15.2733636,29.2727273 L5.72727273,29.2727273 C5.376,29.2727273 5.09090909,29.5571818 5.09090909,29.9090909 C5.09090909,30.261 5.376,30.5454545 5.72727273,30.5454545 L26.0909091,30.5454545 C26.4428182,30.5454545 26.7272727,30.261 26.7272727,29.9090909 C26.7272727,29.5571818 26.4428182,29.2727273 26.0909091,29.2727273 L16.5454545,29.2727273 L16.5454545,8.84481818 C17.7901818,8.59090909 18.7727273,7.60836364 19.026,6.36363636 L25.1503636,6.36363636 L20.4139091,18.2063636 C20.4132727,18.2063636 20.4132727,18.2063636 20.4132727,18.207 L20.4088182,18.2184545 L20.4107273,18.2190909 C20.3814545,18.2922727 20.3636364,18.3711818 20.3636364,18.4545455 C20.3636364,21.6128182 22.9326364,24.1818182 26.0909091,24.1818182 L26.0909091,24.1818182 Z M30.2412727,17.8181818 L21.9405455,17.8181818 L26.0909091,7.44036364 L30.2412727,17.8181818 L30.2412727,17.8181818 Z M5.72727273,7.44036364 L9.87827273,17.8181818 L1.57627273,17.8181818 L5.72727273,7.44036364 L5.72727273,7.44036364 Z" transform="translate(19.09 19.727)" stroke="none" class="secondary-fill--darken"></path>
  </g></g><g class="highlight" transform="matrix(1,0,0,1,1,-1)"><g fill="#ffffff" fill-rule="evenodd" stroke="none">
    
    <path fill="#ffffff" d="M26.0909091,24.1818182 C29.2491818,24.1818182 31.8181818,21.6128182 31.8181818,18.4545455 C31.8181818,18.3711818 31.8003636,18.2922727 31.7710909,18.2190909 L31.773,18.2184545 L31.7685455,18.207 L31.7679091,18.2063636 L26.6820909,5.49054545 C26.5847273,5.24936364 26.3511818,5.09090909 26.0909091,5.09090909 L19.026,5.09090909 C18.7727273,3.84618182 17.7901818,2.86363636 16.5454545,2.60972727 L16.5454545,0.636363636 C16.5454545,0.285090909 16.2603636,0 15.9090909,0 C15.5578182,0 15.2727273,0.285090909 15.2727273,0.636363636 L15.2727273,2.60972727 C14.028,2.86363636 13.0454545,3.84618182 12.7915455,5.09090909 L5.72727273,5.09090909 C5.467,5.09090909 5.23345455,5.24936364 5.13609091,5.49054545 L0.0502727273,18.2063636 L0.0502727273,18.2063636 L0.0458181818,18.2184545 L0.0477272727,18.2190909 C0.0184545455,18.2922727 0,18.3711818 0,18.4545455 C0,21.6128182 2.56963636,24.1818182 5.72727273,24.1818182 C8.88490909,24.1818182 11.4545455,21.6128182 11.4545455,18.4545455 C11.4545455,18.3711818 11.4360909,18.2922727 11.4068182,18.2190909 L11.4087273,18.2184545 L11.4042727,18.2063636 L11.4042727,18.2063636 L6.66781818,6.36363636 L12.7921818,6.36363636 C13.0460909,7.60836364 14.0286364,8.59090909 15.2733636,8.84481818 L15.2733636,29.2727273 L5.72727273,29.2727273 C5.376,29.2727273 5.09090909,29.5571818 5.09090909,29.9090909 C5.09090909,30.261 5.376,30.5454545 5.72727273,30.5454545 L26.0909091,30.5454545 C26.4428182,30.5454545 26.7272727,30.261 26.7272727,29.9090909 C26.7272727,29.5571818 26.4428182,29.2727273 26.0909091,29.2727273 L16.5454545,29.2727273 L16.5454545,8.84481818 C17.7901818,8.59090909 18.7727273,7.60836364 19.026,6.36363636 L25.1503636,6.36363636 L20.4139091,18.2063636 C20.4132727,18.2063636 20.4132727,18.2063636 20.4132727,18.207 L20.4088182,18.2184545 L20.4107273,18.2190909 C20.3814545,18.2922727 20.3636364,18.3711818 20.3636364,18.4545455 C20.3636364,21.6128182 22.9326364,24.1818182 26.0909091,24.1818182 L26.0909091,24.1818182 Z M30.2412727,17.8181818 L21.9405455,17.8181818 L26.0909091,7.44036364 L30.2412727,17.8181818 L30.2412727,17.8181818 Z M5.72727273,7.44036364 L9.87827273,17.8181818 L1.57627273,17.8181818 L5.72727273,7.44036364 L5.72727273,7.44036364 Z" transform="translate(19.09 19.727)" stroke="none"></path>
  </g></g><g class="base"><g fill="none" fill-rule="evenodd" stroke="none" class="main-fill">
    
    <path fill="none" d="M26.0909091,24.1818182 C29.2491818,24.1818182 31.8181818,21.6128182 31.8181818,18.4545455 C31.8181818,18.3711818 31.8003636,18.2922727 31.7710909,18.2190909 L31.773,18.2184545 L31.7685455,18.207 L31.7679091,18.2063636 L26.6820909,5.49054545 C26.5847273,5.24936364 26.3511818,5.09090909 26.0909091,5.09090909 L19.026,5.09090909 C18.7727273,3.84618182 17.7901818,2.86363636 16.5454545,2.60972727 L16.5454545,0.636363636 C16.5454545,0.285090909 16.2603636,0 15.9090909,0 C15.5578182,0 15.2727273,0.285090909 15.2727273,0.636363636 L15.2727273,2.60972727 C14.028,2.86363636 13.0454545,3.84618182 12.7915455,5.09090909 L5.72727273,5.09090909 C5.467,5.09090909 5.23345455,5.24936364 5.13609091,5.49054545 L0.0502727273,18.2063636 L0.0502727273,18.2063636 L0.0458181818,18.2184545 L0.0477272727,18.2190909 C0.0184545455,18.2922727 0,18.3711818 0,18.4545455 C0,21.6128182 2.56963636,24.1818182 5.72727273,24.1818182 C8.88490909,24.1818182 11.4545455,21.6128182 11.4545455,18.4545455 C11.4545455,18.3711818 11.4360909,18.2922727 11.4068182,18.2190909 L11.4087273,18.2184545 L11.4042727,18.2063636 L11.4042727,18.2063636 L6.66781818,6.36363636 L12.7921818,6.36363636 C13.0460909,7.60836364 14.0286364,8.59090909 15.2733636,8.84481818 L15.2733636,29.2727273 L5.72727273,29.2727273 C5.376,29.2727273 5.09090909,29.5571818 5.09090909,29.9090909 C5.09090909,30.261 5.376,30.5454545 5.72727273,30.5454545 L26.0909091,30.5454545 C26.4428182,30.5454545 26.7272727,30.261 26.7272727,29.9090909 C26.7272727,29.5571818 26.4428182,29.2727273 26.0909091,29.2727273 L16.5454545,29.2727273 L16.5454545,8.84481818 C17.7901818,8.59090909 18.7727273,7.60836364 19.026,6.36363636 L25.1503636,6.36363636 L20.4139091,18.2063636 C20.4132727,18.2063636 20.4132727,18.2063636 20.4132727,18.207 L20.4088182,18.2184545 L20.4107273,18.2190909 C20.3814545,18.2922727 20.3636364,18.3711818 20.3636364,18.4545455 C20.3636364,21.6128182 22.9326364,24.1818182 26.0909091,24.1818182 L26.0909091,24.1818182 Z M30.2412727,17.8181818 L21.9405455,17.8181818 L26.0909091,7.44036364 L30.2412727,17.8181818 L30.2412727,17.8181818 Z M5.72727273,7.44036364 L9.87827273,17.8181818 L1.57627273,17.8181818 L5.72727273,7.44036364 L5.72727273,7.44036364 Z" transform="translate(19.09 19.727)" stroke="none" class="main-fill"></path>
  </g></g></g><style>
          .main-fill {fill: #050a46;}
          .main-stroke {stroke: #050a46;}
          .secondary-fill {fill: #fff;}
          .secondary-stroke {stroke: #fff;}

          .main-fill--darken {fill: #000000;}
          .main-stroke--darken {stroke: #000000;}
          .secondary-fill--darken {fill: #d9d9d9;}
          .secondary-stroke--darken {stroke: #d9d9d9;}

          .main-fill--darkener {fill: #000000;}
          .main-stroke--darkener {stroke: #000000;}
          .secondary-fill--darkener {fill: #bfbfbf;}
          .secondary-stroke--darkener {stroke: #bfbfbf;}
        </style></svg>