<svg xmlns="http://www.w3.org/2000/svg" width="70" height="70" viewBox="0 0 70 70" style="width: 100%; height: 100%;"><desc>Made with illustrio</desc>
  
<g class="background"><rect x="8" y="8" width="54" height="54" rx="0" ry="0" class="secondary-fill"></rect></g><g class="content"><g class="shadow" transform="matrix(1,0,0,1,-1,2)"><g fill="none" fill-rule="evenodd" stroke="none" class="secondary-fill--darken">
    
    <path fill="none" d="M34.3120909,20.7492727 L34.3120909,20.7492727 L30.5454545,11.9604545 L30.5454545,11.4545455 L31.1818182,11.4545455 C31.5337273,11.4545455 31.8181818,11.1694545 31.8181818,10.8181818 C31.8181818,10.4669091 31.5337273,10.1818182 31.1818182,10.1818182 L30.5454545,10.1818182 L30.5454545,9.54545455 C30.5454545,9.19418182 30.261,8.90909091 29.9090909,8.90909091 C29.5571818,8.90909091 29.2727273,9.19418182 29.2727273,9.54545455 L29.2727273,10.1818182 L28.6363636,10.1818182 C21.6847273,10.1818182 18.3247273,8.19827273 17.8754545,7.21190909 C18.6238182,6.46545455 20.3636364,4.57672727 20.3636364,3.18181818 C20.3636364,1.42736364 18.9362727,0 17.1818182,0 C15.4273636,0 14,1.42736364 14,3.18181818 C14,4.57672727 15.7398182,6.46545455 16.4881818,7.21190909 C16.0389091,8.19827273 12.6782727,10.1818182 5.72727273,10.1818182 L5.09090909,10.1818182 L5.09090909,9.54545455 C5.09090909,9.19418182 4.80581818,8.90909091 4.45454545,8.90909091 C4.10327273,8.90909091 3.81818182,9.19418182 3.81818182,9.54545455 L3.81818182,10.1818182 L3.18181818,10.1818182 C2.83054545,10.1818182 2.54545455,10.4669091 2.54545455,10.8181818 C2.54545455,11.1694545 2.83054545,11.4545455 3.18181818,11.4545455 L3.81818182,11.4545455 L3.81818182,11.9604545 L0.0515454545,20.7492727 L0.0515454545,20.7492727 C0.0184545455,20.8269091 0,20.9109091 0,21 C0,23.4557273 1.99818182,25.4545455 4.45454545,25.4545455 C6.91090909,25.4545455 8.90909091,23.4557273 8.90909091,21 C8.90909091,20.9109091 8.89063636,20.8269091 8.85754545,20.7492727 L8.85754545,20.7492727 L5.09090909,11.9604545 L5.09090909,11.4545455 L5.72727273,11.4545455 C10.8894545,11.4545455 14.6891818,10.3491818 16.5454545,8.95936364 L16.5454545,27.1466364 C15.8842727,27.9885455 12.572,32.0479091 9.34436364,33.1246364 C9.04845455,33.2226364 8.86772727,33.5217273 8.91736364,33.8297273 C8.967,34.1377273 9.23363636,34.3636364 9.54545455,34.3636364 L24.8181818,34.3636364 C25.13,34.3636364 25.396,34.1377273 25.4462727,33.8290909 C25.4959091,33.5210909 25.3151818,33.222 25.0192727,33.124 C21.7960909,32.0491818 18.48,27.9872727 17.8181818,27.1453636 L17.8181818,8.95936364 C19.6744545,10.3491818 23.4741818,11.4545455 28.6363636,11.4545455 L29.2727273,11.4545455 L29.2727273,11.9604545 L25.5060909,20.7499091 L25.5060909,20.7499091 C25.473,20.8269091 25.4545455,20.9109091 25.4545455,21 C25.4545455,23.4557273 27.4533636,25.4545455 29.9090909,25.4545455 C32.3648182,25.4545455 34.3636364,23.4557273 34.3636364,21 C34.3636364,20.9109091 34.3451818,20.8269091 34.3120909,20.7492727 L34.3120909,20.7492727 Z M1.60109091,20.3636364 L4.45454545,13.706 L7.308,20.3636364 L1.60109091,20.3636364 L1.60109091,20.3636364 Z M29.9090909,13.706 L32.7619091,20.3636364 L27.0556364,20.3636364 L29.9090909,13.706 L29.9090909,13.706 Z" transform="translate(17.818 17.818)" stroke="none" class="secondary-fill--darken"></path>
  </g></g><g class="highlight" transform="matrix(1,0,0,1,1,-1)"><g fill="#ffffff" fill-rule="evenodd" stroke="none">
    
    <path fill="#ffffff" d="M34.3120909,20.7492727 L34.3120909,20.7492727 L30.5454545,11.9604545 L30.5454545,11.4545455 L31.1818182,11.4545455 C31.5337273,11.4545455 31.8181818,11.1694545 31.8181818,10.8181818 C31.8181818,10.4669091 31.5337273,10.1818182 31.1818182,10.1818182 L30.5454545,10.1818182 L30.5454545,9.54545455 C30.5454545,9.19418182 30.261,8.90909091 29.9090909,8.90909091 C29.5571818,8.90909091 29.2727273,9.19418182 29.2727273,9.54545455 L29.2727273,10.1818182 L28.6363636,10.1818182 C21.6847273,10.1818182 18.3247273,8.19827273 17.8754545,7.21190909 C18.6238182,6.46545455 20.3636364,4.57672727 20.3636364,3.18181818 C20.3636364,1.42736364 18.9362727,0 17.1818182,0 C15.4273636,0 14,1.42736364 14,3.18181818 C14,4.57672727 15.7398182,6.46545455 16.4881818,7.21190909 C16.0389091,8.19827273 12.6782727,10.1818182 5.72727273,10.1818182 L5.09090909,10.1818182 L5.09090909,9.54545455 C5.09090909,9.19418182 4.80581818,8.90909091 4.45454545,8.90909091 C4.10327273,8.90909091 3.81818182,9.19418182 3.81818182,9.54545455 L3.81818182,10.1818182 L3.18181818,10.1818182 C2.83054545,10.1818182 2.54545455,10.4669091 2.54545455,10.8181818 C2.54545455,11.1694545 2.83054545,11.4545455 3.18181818,11.4545455 L3.81818182,11.4545455 L3.81818182,11.9604545 L0.0515454545,20.7492727 L0.0515454545,20.7492727 C0.0184545455,20.8269091 0,20.9109091 0,21 C0,23.4557273 1.99818182,25.4545455 4.45454545,25.4545455 C6.91090909,25.4545455 8.90909091,23.4557273 8.90909091,21 C8.90909091,20.9109091 8.89063636,20.8269091 8.85754545,20.7492727 L8.85754545,20.7492727 L5.09090909,11.9604545 L5.09090909,11.4545455 L5.72727273,11.4545455 C10.8894545,11.4545455 14.6891818,10.3491818 16.5454545,8.95936364 L16.5454545,27.1466364 C15.8842727,27.9885455 12.572,32.0479091 9.34436364,33.1246364 C9.04845455,33.2226364 8.86772727,33.5217273 8.91736364,33.8297273 C8.967,34.1377273 9.23363636,34.3636364 9.54545455,34.3636364 L24.8181818,34.3636364 C25.13,34.3636364 25.396,34.1377273 25.4462727,33.8290909 C25.4959091,33.5210909 25.3151818,33.222 25.0192727,33.124 C21.7960909,32.0491818 18.48,27.9872727 17.8181818,27.1453636 L17.8181818,8.95936364 C19.6744545,10.3491818 23.4741818,11.4545455 28.6363636,11.4545455 L29.2727273,11.4545455 L29.2727273,11.9604545 L25.5060909,20.7499091 L25.5060909,20.7499091 C25.473,20.8269091 25.4545455,20.9109091 25.4545455,21 C25.4545455,23.4557273 27.4533636,25.4545455 29.9090909,25.4545455 C32.3648182,25.4545455 34.3636364,23.4557273 34.3636364,21 C34.3636364,20.9109091 34.3451818,20.8269091 34.3120909,20.7492727 L34.3120909,20.7492727 Z M1.60109091,20.3636364 L4.45454545,13.706 L7.308,20.3636364 L1.60109091,20.3636364 L1.60109091,20.3636364 Z M29.9090909,13.706 L32.7619091,20.3636364 L27.0556364,20.3636364 L29.9090909,13.706 L29.9090909,13.706 Z" transform="translate(17.818 17.818)" stroke="none"></path>
  </g></g><g class="base"><g fill="none" fill-rule="evenodd" stroke="none" class="main-fill">
    
    <path fill="none" d="M34.3120909,20.7492727 L34.3120909,20.7492727 L30.5454545,11.9604545 L30.5454545,11.4545455 L31.1818182,11.4545455 C31.5337273,11.4545455 31.8181818,11.1694545 31.8181818,10.8181818 C31.8181818,10.4669091 31.5337273,10.1818182 31.1818182,10.1818182 L30.5454545,10.1818182 L30.5454545,9.54545455 C30.5454545,9.19418182 30.261,8.90909091 29.9090909,8.90909091 C29.5571818,8.90909091 29.2727273,9.19418182 29.2727273,9.54545455 L29.2727273,10.1818182 L28.6363636,10.1818182 C21.6847273,10.1818182 18.3247273,8.19827273 17.8754545,7.21190909 C18.6238182,6.46545455 20.3636364,4.57672727 20.3636364,3.18181818 C20.3636364,1.42736364 18.9362727,0 17.1818182,0 C15.4273636,0 14,1.42736364 14,3.18181818 C14,4.57672727 15.7398182,6.46545455 16.4881818,7.21190909 C16.0389091,8.19827273 12.6782727,10.1818182 5.72727273,10.1818182 L5.09090909,10.1818182 L5.09090909,9.54545455 C5.09090909,9.19418182 4.80581818,8.90909091 4.45454545,8.90909091 C4.10327273,8.90909091 3.81818182,9.19418182 3.81818182,9.54545455 L3.81818182,10.1818182 L3.18181818,10.1818182 C2.83054545,10.1818182 2.54545455,10.4669091 2.54545455,10.8181818 C2.54545455,11.1694545 2.83054545,11.4545455 3.18181818,11.4545455 L3.81818182,11.4545455 L3.81818182,11.9604545 L0.0515454545,20.7492727 L0.0515454545,20.7492727 C0.0184545455,20.8269091 0,20.9109091 0,21 C0,23.4557273 1.99818182,25.4545455 4.45454545,25.4545455 C6.91090909,25.4545455 8.90909091,23.4557273 8.90909091,21 C8.90909091,20.9109091 8.89063636,20.8269091 8.85754545,20.7492727 L8.85754545,20.7492727 L5.09090909,11.9604545 L5.09090909,11.4545455 L5.72727273,11.4545455 C10.8894545,11.4545455 14.6891818,10.3491818 16.5454545,8.95936364 L16.5454545,27.1466364 C15.8842727,27.9885455 12.572,32.0479091 9.34436364,33.1246364 C9.04845455,33.2226364 8.86772727,33.5217273 8.91736364,33.8297273 C8.967,34.1377273 9.23363636,34.3636364 9.54545455,34.3636364 L24.8181818,34.3636364 C25.13,34.3636364 25.396,34.1377273 25.4462727,33.8290909 C25.4959091,33.5210909 25.3151818,33.222 25.0192727,33.124 C21.7960909,32.0491818 18.48,27.9872727 17.8181818,27.1453636 L17.8181818,8.95936364 C19.6744545,10.3491818 23.4741818,11.4545455 28.6363636,11.4545455 L29.2727273,11.4545455 L29.2727273,11.9604545 L25.5060909,20.7499091 L25.5060909,20.7499091 C25.473,20.8269091 25.4545455,20.9109091 25.4545455,21 C25.4545455,23.4557273 27.4533636,25.4545455 29.9090909,25.4545455 C32.3648182,25.4545455 34.3636364,23.4557273 34.3636364,21 C34.3636364,20.9109091 34.3451818,20.8269091 34.3120909,20.7492727 L34.3120909,20.7492727 Z M1.60109091,20.3636364 L4.45454545,13.706 L7.308,20.3636364 L1.60109091,20.3636364 L1.60109091,20.3636364 Z M29.9090909,13.706 L32.7619091,20.3636364 L27.0556364,20.3636364 L29.9090909,13.706 L29.9090909,13.706 Z" transform="translate(17.818 17.818)" stroke="none" class="main-fill"></path>
  </g></g></g><style>
          .main-fill {fill: #050a46;}
          .main-stroke {stroke: #050a46;}
          .secondary-fill {fill: #fff;}
          .secondary-stroke {stroke: #fff;}

          .main-fill--darken {fill: #000000;}
          .main-stroke--darken {stroke: #000000;}
          .secondary-fill--darken {fill: #d9d9d9;}
          .secondary-stroke--darken {stroke: #d9d9d9;}

          .main-fill--darkener {fill: #000000;}
          .main-stroke--darkener {stroke: #000000;}
          .secondary-fill--darkener {fill: #bfbfbf;}
          .secondary-stroke--darkener {stroke: #bfbfbf;}
        </style></svg>