<svg xmlns="http://www.w3.org/2000/svg" width="70" height="70" viewBox="0 0 70 70" style="width: 100%; height: 100%;"><desc>Made with illustrio</desc>
  
<g class="background"><rect x="8" y="8" width="54" height="54" rx="0" ry="0" class="secondary-fill"></rect></g><g class="content"><g class="shadow" transform="matrix(1,0,0,1,-1,2)"><g fill="none" fill-rule="evenodd" stroke="none" class="secondary-fill--darken">
    
    
  </g><g fill="none" transform="translate(17.818 19.09)" stroke="none" class="secondary-fill--darken">
      <path d="M33.0756364 21.1463636C32.7937273 20.937 32.3953636 20.9968182 32.186 21.2793636L31.8073636 21.7903636 16.4659091 10.4274545 18.739 7.35890909 19.2506364 7.73818182C19.3645455 7.82218182 19.4969091 7.86290909 19.6286364 7.86290909 19.824 7.86290909 20.0155455 7.77381818 20.1409091 7.60518182L21.6560909 5.55990909C21.7566364 5.42436364 21.7992727 5.25445455 21.7744545 5.08709091 21.7496364 4.91972727 21.6592727 4.77018182 21.5230909 4.66963636L15.3866364.124727273C15.1034545-.084 14.7057273-.0241818182 14.4963636.257090909L12.9811818 2.30236364C12.8806364 2.43790909 12.838 2.60781818 12.8628182 2.77518182 12.8876364 2.94254545 12.978 3.09209091 13.1135455 3.19263636L13.6245455 3.57127273 6.80718182 12.7762727 6.29554545 12.3976364C6.16 12.2970909 5.992 12.2557273 5.82272727 12.2792727 5.656 12.3040909 5.50518182 12.3944545 5.40527273 12.53L3.89072727 14.5752727C3.68136364 14.8578182 3.74118182 15.2561818 4.02309091 15.4655455L10.1595455 20.0110909C10.2696364 20.0925455 10.4026364 20.1358182 10.5381818 20.1358182 10.5693636 20.1358182 10.6005455 20.1332727 10.6317273 20.1288182 10.7984545 20.104 10.9492727 20.0136364 11.0491818 19.8774545L12.5637273 17.8315455C12.7730909 17.5496364 12.7132727 17.1512727 12.4313636 16.9419091L11.9203636 16.5632727 14.1928182 13.4953636 29.5336364 24.8582727 29.155 25.3699091C28.9462727 25.6518182 29.0054545 26.0501818 29.2873636 26.2595455 29.8390909 26.6687273 30.4932727 26.8838182 31.1786364 26.8838182 32.1834545 26.8838182 33.1405455 26.4020909 33.7374545 25.5958182 34.783 24.1869091 34.4851818 22.1906364 33.0756364 21.1463636L33.0756364 21.1463636zM10.8181818 26.7272727L9.80890909 26.7272727 8.72263636 25.641C8.60363636 25.5213636 8.44136364 25.4545455 8.27272727 25.4545455L3.18181818 25.4545455C3.01318182 25.4545455 2.85090909 25.5213636 2.73190909 25.641L1.64563636 26.7272727.636363636 26.7272727C.285090909 26.7272727 0 27.0117273 0 27.3636364L0 31.1818182C0 31.5337273.285090909 31.8181818.636363636 31.8181818L10.8181818 31.8181818C11.1694545 31.8181818 11.4545455 31.5337273 11.4545455 31.1818182L11.4545455 27.3636364C11.4545455 27.0117273 11.1694545 26.7272727 10.8181818 26.7272727L10.8181818 26.7272727z" fill="none" stroke="none" class="secondary-fill--darken"></path>
    </g></g><g class="highlight" transform="matrix(1,0,0,1,1,-1)"><g fill="#ffffff" fill-rule="evenodd" stroke="none">
    
    
  </g><g fill="#ffffff" transform="translate(17.818 19.09)" stroke="none">
      <path d="M33.0756364 21.1463636C32.7937273 20.937 32.3953636 20.9968182 32.186 21.2793636L31.8073636 21.7903636 16.4659091 10.4274545 18.739 7.35890909 19.2506364 7.73818182C19.3645455 7.82218182 19.4969091 7.86290909 19.6286364 7.86290909 19.824 7.86290909 20.0155455 7.77381818 20.1409091 7.60518182L21.6560909 5.55990909C21.7566364 5.42436364 21.7992727 5.25445455 21.7744545 5.08709091 21.7496364 4.91972727 21.6592727 4.77018182 21.5230909 4.66963636L15.3866364.124727273C15.1034545-.084 14.7057273-.0241818182 14.4963636.257090909L12.9811818 2.30236364C12.8806364 2.43790909 12.838 2.60781818 12.8628182 2.77518182 12.8876364 2.94254545 12.978 3.09209091 13.1135455 3.19263636L13.6245455 3.57127273 6.80718182 12.7762727 6.29554545 12.3976364C6.16 12.2970909 5.992 12.2557273 5.82272727 12.2792727 5.656 12.3040909 5.50518182 12.3944545 5.40527273 12.53L3.89072727 14.5752727C3.68136364 14.8578182 3.74118182 15.2561818 4.02309091 15.4655455L10.1595455 20.0110909C10.2696364 20.0925455 10.4026364 20.1358182 10.5381818 20.1358182 10.5693636 20.1358182 10.6005455 20.1332727 10.6317273 20.1288182 10.7984545 20.104 10.9492727 20.0136364 11.0491818 19.8774545L12.5637273 17.8315455C12.7730909 17.5496364 12.7132727 17.1512727 12.4313636 16.9419091L11.9203636 16.5632727 14.1928182 13.4953636 29.5336364 24.8582727 29.155 25.3699091C28.9462727 25.6518182 29.0054545 26.0501818 29.2873636 26.2595455 29.8390909 26.6687273 30.4932727 26.8838182 31.1786364 26.8838182 32.1834545 26.8838182 33.1405455 26.4020909 33.7374545 25.5958182 34.783 24.1869091 34.4851818 22.1906364 33.0756364 21.1463636L33.0756364 21.1463636zM10.8181818 26.7272727L9.80890909 26.7272727 8.72263636 25.641C8.60363636 25.5213636 8.44136364 25.4545455 8.27272727 25.4545455L3.18181818 25.4545455C3.01318182 25.4545455 2.85090909 25.5213636 2.73190909 25.641L1.64563636 26.7272727.636363636 26.7272727C.285090909 26.7272727 0 27.0117273 0 27.3636364L0 31.1818182C0 31.5337273.285090909 31.8181818.636363636 31.8181818L10.8181818 31.8181818C11.1694545 31.8181818 11.4545455 31.5337273 11.4545455 31.1818182L11.4545455 27.3636364C11.4545455 27.0117273 11.1694545 26.7272727 10.8181818 26.7272727L10.8181818 26.7272727z" fill="#ffffff" stroke="none"></path>
    </g></g><g class="base"><g fill="none" fill-rule="evenodd" stroke="none" class="main-fill">
    
    
  </g><g fill="none" transform="translate(17.818 19.09)" stroke="none" class="main-fill">
      <path d="M33.0756364 21.1463636C32.7937273 20.937 32.3953636 20.9968182 32.186 21.2793636L31.8073636 21.7903636 16.4659091 10.4274545 18.739 7.35890909 19.2506364 7.73818182C19.3645455 7.82218182 19.4969091 7.86290909 19.6286364 7.86290909 19.824 7.86290909 20.0155455 7.77381818 20.1409091 7.60518182L21.6560909 5.55990909C21.7566364 5.42436364 21.7992727 5.25445455 21.7744545 5.08709091 21.7496364 4.91972727 21.6592727 4.77018182 21.5230909 4.66963636L15.3866364.124727273C15.1034545-.084 14.7057273-.0241818182 14.4963636.257090909L12.9811818 2.30236364C12.8806364 2.43790909 12.838 2.60781818 12.8628182 2.77518182 12.8876364 2.94254545 12.978 3.09209091 13.1135455 3.19263636L13.6245455 3.57127273 6.80718182 12.7762727 6.29554545 12.3976364C6.16 12.2970909 5.992 12.2557273 5.82272727 12.2792727 5.656 12.3040909 5.50518182 12.3944545 5.40527273 12.53L3.89072727 14.5752727C3.68136364 14.8578182 3.74118182 15.2561818 4.02309091 15.4655455L10.1595455 20.0110909C10.2696364 20.0925455 10.4026364 20.1358182 10.5381818 20.1358182 10.5693636 20.1358182 10.6005455 20.1332727 10.6317273 20.1288182 10.7984545 20.104 10.9492727 20.0136364 11.0491818 19.8774545L12.5637273 17.8315455C12.7730909 17.5496364 12.7132727 17.1512727 12.4313636 16.9419091L11.9203636 16.5632727 14.1928182 13.4953636 29.5336364 24.8582727 29.155 25.3699091C28.9462727 25.6518182 29.0054545 26.0501818 29.2873636 26.2595455 29.8390909 26.6687273 30.4932727 26.8838182 31.1786364 26.8838182 32.1834545 26.8838182 33.1405455 26.4020909 33.7374545 25.5958182 34.783 24.1869091 34.4851818 22.1906364 33.0756364 21.1463636L33.0756364 21.1463636zM10.8181818 26.7272727L9.80890909 26.7272727 8.72263636 25.641C8.60363636 25.5213636 8.44136364 25.4545455 8.27272727 25.4545455L3.18181818 25.4545455C3.01318182 25.4545455 2.85090909 25.5213636 2.73190909 25.641L1.64563636 26.7272727.636363636 26.7272727C.285090909 26.7272727 0 27.0117273 0 27.3636364L0 31.1818182C0 31.5337273.285090909 31.8181818.636363636 31.8181818L10.8181818 31.8181818C11.1694545 31.8181818 11.4545455 31.5337273 11.4545455 31.1818182L11.4545455 27.3636364C11.4545455 27.0117273 11.1694545 26.7272727 10.8181818 26.7272727L10.8181818 26.7272727z" fill="none" stroke="none" class="main-fill"></path>
    </g></g></g><style>
          .main-fill {fill: #050a46;}
          .main-stroke {stroke: #050a46;}
          .secondary-fill {fill: #fff;}
          .secondary-stroke {stroke: #fff;}

          .main-fill--darken {fill: #000000;}
          .main-stroke--darken {stroke: #000000;}
          .secondary-fill--darken {fill: #d9d9d9;}
          .secondary-stroke--darken {stroke: #d9d9d9;}

          .main-fill--darkener {fill: #000000;}
          .main-stroke--darkener {stroke: #000000;}
          .secondary-fill--darkener {fill: #bfbfbf;}
          .secondary-stroke--darkener {stroke: #bfbfbf;}
        </style></svg>