<svg xmlns="http://www.w3.org/2000/svg" width="70" height="70" viewBox="0 0 70 70" style="width: 100%; height: 100%;"><desc>Made with illustrio</desc>
  
<g class="background"><rect x="8" y="8" width="54" height="54" rx="0" ry="0" class="secondary-fill"></rect></g><g class="content"><g class="shadow" transform="matrix(1,0,0,1,-1,2)"><g fill="none" fill-rule="evenodd" stroke="none" class="secondary-fill--darken">
    
    
    <path fill="none" d="M1.23529412,0.149132941 C0.550941588,0.149132941 0,0.700074735 0,1.38442706 L0,33.5020741 C0,34.1864266 0.550941588,34.7373682 1.23529412,34.7373682 L26.7647059,34.7373682 C27.4490584,34.7373682 28,34.1864266 28,33.5020741 L28,1.38442706 C28,0.700074735 27.4490584,0.149132941 26.7647059,0.149132941 L1.23529412,0.149132941 Z M14,3.44325059 C18.9933067,3.44325059 23.0588235,7.50880941 23.0588235,12.5020741 C23.0588235,17.4953265 18.9933067,21.5608976 14,21.5608976 C9.00669371,21.5608976 4.94117647,17.4953265 4.94117647,12.5020741 C4.94117647,7.50880941 9.00669371,3.44325059 14,3.44325059 Z M13.1764706,5.37339765 C12.7152233,5.67367088 12.2399496,6.21702447 11.8253676,7.04619176 C11.7177991,7.26133018 11.6117857,7.49602947 11.5165441,7.74104471 C12.0532568,7.66182529 12.60434,7.61283394 13.1764706,7.58663294 L13.1764706,5.37339765 Z M14.8235294,5.37339765 L14.8235294,7.58663294 C15.3956612,7.61283394 15.9467432,7.66182529 16.4834559,7.74104471 C16.3882143,7.49602947 16.2822009,7.26133018 16.1746324,7.04619176 C15.7600504,6.21702447 15.2847767,5.67367088 14.8235294,5.37339765 Z M10.5386029,5.93957412 C9.21469582,6.63738312 8.13329382,7.72840929 7.4375,9.05354471 C7.56094665,8.98354018 7.68139359,8.91229665 7.81066176,8.84766235 C8.36364776,8.57116853 8.97741229,8.33175 9.63786765,8.13994176 C9.82986118,7.47617788 10.068597,6.85385318 10.3455882,6.29986824 C10.407369,6.17630629 10.4722775,6.05768018 10.5386029,5.93957412 Z M17.4613971,5.93957412 C17.5271423,6.05693818 17.5930901,6.17722412 17.6544118,6.29986824 C17.931403,6.85385318 18.1701388,7.47617788 18.3621324,8.13994176 C19.0225869,8.33175 19.6363531,8.57116853 20.1893382,8.84766235 C20.3190371,8.912512 20.4385057,8.98322847 20.5625,9.05354471 C19.8667062,7.72840929 18.7853042,6.63738312 17.4613971,5.93957412 Z M13.1764706,9.23369176 C12.4115588,9.27451618 11.6779489,9.362899 11.0018382,9.50391235 C10.8608245,10.1800222 10.7724421,10.9136321 10.7316176,11.6785447 L13.1764706,11.6785447 L13.1764706,9.23369176 Z M14.8235294,9.23369176 L14.8235294,11.6785447 L17.2683824,11.6785447 C17.2275579,10.9136321 17.1391755,10.1800222 16.9981618,9.50391235 C16.3220515,9.362899 15.5884433,9.27451618 14.8235294,9.23369176 Z M9.23897059,10.0186182 C8.99395535,10.1138602 8.75925524,10.2198728 8.54411765,10.3274418 C7.71495365,10.7420254 7.171598,11.2172982 6.87132353,11.6785447 L9.08455882,11.6785447 C9.11073759,11.1062519 9.15986153,10.5563665 9.23897059,10.0186182 Z M18.7610294,10.0186182 C18.8401385,10.5563665 18.8892624,11.1062519 18.9154412,11.6785447 L21.1286765,11.6785447 C20.8284016,11.2172982 20.2850451,10.7420254 19.4558824,10.3274418 C19.2407452,10.2198728 19.0060438,10.1138602 18.7610294,10.0186182 Z M6.87132353,13.3256035 C7.17159718,13.7868521 7.714952,14.2621204 8.54411765,14.6767065 C8.75925565,14.7842763 8.99395535,14.8902876 9.23897059,14.98553 C9.15975076,14.4488153 9.11075982,13.8977296 9.08455882,13.3256035 L6.87132353,13.3256035 Z M10.7316176,13.3256035 C10.7724421,14.0905055 10.8608245,14.8241244 11.0018382,15.5002359 C11.6779493,15.6412488 12.4115596,15.7296325 13.1764706,15.7704565 L13.1764706,13.3256035 L10.7316176,13.3256035 Z M14.8235294,13.3256035 L14.8235294,15.7704565 C15.5884425,15.7296325 16.3220515,15.6412488 16.9981618,15.5002359 C17.1391755,14.8241244 17.2275579,14.0905055 17.2683824,13.3256035 L14.8235294,13.3256035 Z M18.9154412,13.3256035 C18.8892402,13.8977296 18.8402492,14.4488153 18.7610294,14.98553 C19.0060442,14.8902876 19.2407448,14.7842763 19.4558824,14.6767065 C20.2850464,14.2621204 20.828402,13.7868516 21.1286765,13.3256035 L18.9154412,13.3256035 Z M7.42463235,15.9377359 C8.124557,17.2783508 9.22371141,18.3775254 10.5643382,19.0774418 C10.4915251,18.9491964 10.4127067,18.8256509 10.3455882,18.6914124 C10.0674202,18.1350812 9.83029559,17.5163866 9.63786765,16.8513388 C8.97741271,16.6575916 8.36364653,16.4201145 7.81066176,16.1436182 C7.67938953,16.0779817 7.55061506,16.0085837 7.42463235,15.9377359 Z M20.5753676,15.9377359 C20.4482501,16.0096242 20.3224774,16.0770478 20.1893382,16.1436182 C19.6363539,16.4201145 19.0225865,16.6575916 18.3621324,16.8513388 C18.1697044,17.5163866 17.9325798,18.1350812 17.6544118,18.6914124 C17.5895625,18.8211129 17.5188456,18.940579 17.4485294,19.0645741 C18.7822122,18.3643065 19.8781063,17.2732498 20.5753676,15.9377359 Z M11.5165441,17.2631035 C11.6117861,17.5081221 11.7177986,17.7428144 11.8253676,17.9579565 C12.2399501,18.787139 12.7152229,19.3304823 13.1764706,19.6307506 L13.1764706,17.4175153 C12.6043396,17.390667 12.0532568,17.343781 11.5165441,17.2631035 Z M16.4834559,17.2631035 C15.9467432,17.343781 15.3956616,17.390667 14.8235294,17.4175153 L14.8235294,19.6307506 C15.2847771,19.3304823 15.7600499,18.787139 16.1746324,17.9579565 C16.2822014,17.7428144 16.3882139,17.5081221 16.4834559,17.2631035 Z M6.06066176,25.6785447 C6.07352765,25.6782434 6.08639882,25.6782434 6.09926471,25.6785447 C6.12498585,25.6773378 6.15074944,25.6773378 6.17647059,25.6785447 L21.8235294,25.6785447 C22.1205202,25.6743498 22.3967639,25.8303897 22.5464835,26.0869149 C22.6962031,26.3434401 22.6962031,26.6607081 22.5464835,26.9172334 C22.3967639,27.1737586 22.1205202,27.3297985 21.8235294,27.3256035 L6.17647059,27.3256035 C5.72164786,27.3575832 5.32701652,27.0148012 5.2950368,26.5599785 C5.26305707,26.1051558 5.60583904,25.7105244 6.06066176,25.6785447 Z M6.06066176,29.7961918 C6.07352765,29.7958905 6.08639882,29.7958905 6.09926471,29.7961918 C6.12498585,29.7949849 6.15074944,29.7949849 6.17647059,29.7961918 L21.8235294,29.7961918 C22.1205202,29.7919968 22.3967639,29.9480367 22.5464835,30.2045619 C22.6962031,30.4610872 22.6962031,30.7783552 22.5464835,31.0348804 C22.3967639,31.2914056 22.1205202,31.4474455 21.8235294,31.4432506 L6.17647059,31.4432506 C5.72164786,31.4752303 5.32701652,31.1324483 5.2950368,30.6776256 C5.26305707,30.2228029 5.60583904,29.8281715 6.06066176,29.7961918 Z" transform="translate(21 17.557)" stroke="none" class="secondary-fill--darken"></path>
  </g></g><g class="highlight" transform="matrix(1,0,0,1,1,-1)"><g fill="#ffffff" fill-rule="evenodd" stroke="none">
    
    
    <path fill="#ffffff" d="M1.23529412,0.149132941 C0.550941588,0.149132941 0,0.700074735 0,1.38442706 L0,33.5020741 C0,34.1864266 0.550941588,34.7373682 1.23529412,34.7373682 L26.7647059,34.7373682 C27.4490584,34.7373682 28,34.1864266 28,33.5020741 L28,1.38442706 C28,0.700074735 27.4490584,0.149132941 26.7647059,0.149132941 L1.23529412,0.149132941 Z M14,3.44325059 C18.9933067,3.44325059 23.0588235,7.50880941 23.0588235,12.5020741 C23.0588235,17.4953265 18.9933067,21.5608976 14,21.5608976 C9.00669371,21.5608976 4.94117647,17.4953265 4.94117647,12.5020741 C4.94117647,7.50880941 9.00669371,3.44325059 14,3.44325059 Z M13.1764706,5.37339765 C12.7152233,5.67367088 12.2399496,6.21702447 11.8253676,7.04619176 C11.7177991,7.26133018 11.6117857,7.49602947 11.5165441,7.74104471 C12.0532568,7.66182529 12.60434,7.61283394 13.1764706,7.58663294 L13.1764706,5.37339765 Z M14.8235294,5.37339765 L14.8235294,7.58663294 C15.3956612,7.61283394 15.9467432,7.66182529 16.4834559,7.74104471 C16.3882143,7.49602947 16.2822009,7.26133018 16.1746324,7.04619176 C15.7600504,6.21702447 15.2847767,5.67367088 14.8235294,5.37339765 Z M10.5386029,5.93957412 C9.21469582,6.63738312 8.13329382,7.72840929 7.4375,9.05354471 C7.56094665,8.98354018 7.68139359,8.91229665 7.81066176,8.84766235 C8.36364776,8.57116853 8.97741229,8.33175 9.63786765,8.13994176 C9.82986118,7.47617788 10.068597,6.85385318 10.3455882,6.29986824 C10.407369,6.17630629 10.4722775,6.05768018 10.5386029,5.93957412 Z M17.4613971,5.93957412 C17.5271423,6.05693818 17.5930901,6.17722412 17.6544118,6.29986824 C17.931403,6.85385318 18.1701388,7.47617788 18.3621324,8.13994176 C19.0225869,8.33175 19.6363531,8.57116853 20.1893382,8.84766235 C20.3190371,8.912512 20.4385057,8.98322847 20.5625,9.05354471 C19.8667062,7.72840929 18.7853042,6.63738312 17.4613971,5.93957412 Z M13.1764706,9.23369176 C12.4115588,9.27451618 11.6779489,9.362899 11.0018382,9.50391235 C10.8608245,10.1800222 10.7724421,10.9136321 10.7316176,11.6785447 L13.1764706,11.6785447 L13.1764706,9.23369176 Z M14.8235294,9.23369176 L14.8235294,11.6785447 L17.2683824,11.6785447 C17.2275579,10.9136321 17.1391755,10.1800222 16.9981618,9.50391235 C16.3220515,9.362899 15.5884433,9.27451618 14.8235294,9.23369176 Z M9.23897059,10.0186182 C8.99395535,10.1138602 8.75925524,10.2198728 8.54411765,10.3274418 C7.71495365,10.7420254 7.171598,11.2172982 6.87132353,11.6785447 L9.08455882,11.6785447 C9.11073759,11.1062519 9.15986153,10.5563665 9.23897059,10.0186182 Z M18.7610294,10.0186182 C18.8401385,10.5563665 18.8892624,11.1062519 18.9154412,11.6785447 L21.1286765,11.6785447 C20.8284016,11.2172982 20.2850451,10.7420254 19.4558824,10.3274418 C19.2407452,10.2198728 19.0060438,10.1138602 18.7610294,10.0186182 Z M6.87132353,13.3256035 C7.17159718,13.7868521 7.714952,14.2621204 8.54411765,14.6767065 C8.75925565,14.7842763 8.99395535,14.8902876 9.23897059,14.98553 C9.15975076,14.4488153 9.11075982,13.8977296 9.08455882,13.3256035 L6.87132353,13.3256035 Z M10.7316176,13.3256035 C10.7724421,14.0905055 10.8608245,14.8241244 11.0018382,15.5002359 C11.6779493,15.6412488 12.4115596,15.7296325 13.1764706,15.7704565 L13.1764706,13.3256035 L10.7316176,13.3256035 Z M14.8235294,13.3256035 L14.8235294,15.7704565 C15.5884425,15.7296325 16.3220515,15.6412488 16.9981618,15.5002359 C17.1391755,14.8241244 17.2275579,14.0905055 17.2683824,13.3256035 L14.8235294,13.3256035 Z M18.9154412,13.3256035 C18.8892402,13.8977296 18.8402492,14.4488153 18.7610294,14.98553 C19.0060442,14.8902876 19.2407448,14.7842763 19.4558824,14.6767065 C20.2850464,14.2621204 20.828402,13.7868516 21.1286765,13.3256035 L18.9154412,13.3256035 Z M7.42463235,15.9377359 C8.124557,17.2783508 9.22371141,18.3775254 10.5643382,19.0774418 C10.4915251,18.9491964 10.4127067,18.8256509 10.3455882,18.6914124 C10.0674202,18.1350812 9.83029559,17.5163866 9.63786765,16.8513388 C8.97741271,16.6575916 8.36364653,16.4201145 7.81066176,16.1436182 C7.67938953,16.0779817 7.55061506,16.0085837 7.42463235,15.9377359 Z M20.5753676,15.9377359 C20.4482501,16.0096242 20.3224774,16.0770478 20.1893382,16.1436182 C19.6363539,16.4201145 19.0225865,16.6575916 18.3621324,16.8513388 C18.1697044,17.5163866 17.9325798,18.1350812 17.6544118,18.6914124 C17.5895625,18.8211129 17.5188456,18.940579 17.4485294,19.0645741 C18.7822122,18.3643065 19.8781063,17.2732498 20.5753676,15.9377359 Z M11.5165441,17.2631035 C11.6117861,17.5081221 11.7177986,17.7428144 11.8253676,17.9579565 C12.2399501,18.787139 12.7152229,19.3304823 13.1764706,19.6307506 L13.1764706,17.4175153 C12.6043396,17.390667 12.0532568,17.343781 11.5165441,17.2631035 Z M16.4834559,17.2631035 C15.9467432,17.343781 15.3956616,17.390667 14.8235294,17.4175153 L14.8235294,19.6307506 C15.2847771,19.3304823 15.7600499,18.787139 16.1746324,17.9579565 C16.2822014,17.7428144 16.3882139,17.5081221 16.4834559,17.2631035 Z M6.06066176,25.6785447 C6.07352765,25.6782434 6.08639882,25.6782434 6.09926471,25.6785447 C6.12498585,25.6773378 6.15074944,25.6773378 6.17647059,25.6785447 L21.8235294,25.6785447 C22.1205202,25.6743498 22.3967639,25.8303897 22.5464835,26.0869149 C22.6962031,26.3434401 22.6962031,26.6607081 22.5464835,26.9172334 C22.3967639,27.1737586 22.1205202,27.3297985 21.8235294,27.3256035 L6.17647059,27.3256035 C5.72164786,27.3575832 5.32701652,27.0148012 5.2950368,26.5599785 C5.26305707,26.1051558 5.60583904,25.7105244 6.06066176,25.6785447 Z M6.06066176,29.7961918 C6.07352765,29.7958905 6.08639882,29.7958905 6.09926471,29.7961918 C6.12498585,29.7949849 6.15074944,29.7949849 6.17647059,29.7961918 L21.8235294,29.7961918 C22.1205202,29.7919968 22.3967639,29.9480367 22.5464835,30.2045619 C22.6962031,30.4610872 22.6962031,30.7783552 22.5464835,31.0348804 C22.3967639,31.2914056 22.1205202,31.4474455 21.8235294,31.4432506 L6.17647059,31.4432506 C5.72164786,31.4752303 5.32701652,31.1324483 5.2950368,30.6776256 C5.26305707,30.2228029 5.60583904,29.8281715 6.06066176,29.7961918 Z" transform="translate(21 17.557)" stroke="none"></path>
  </g></g><g class="base"><g fill="none" fill-rule="evenodd" stroke="none" class="main-fill">
    
    
    <path fill="none" d="M1.23529412,0.149132941 C0.550941588,0.149132941 0,0.700074735 0,1.38442706 L0,33.5020741 C0,34.1864266 0.550941588,34.7373682 1.23529412,34.7373682 L26.7647059,34.7373682 C27.4490584,34.7373682 28,34.1864266 28,33.5020741 L28,1.38442706 C28,0.700074735 27.4490584,0.149132941 26.7647059,0.149132941 L1.23529412,0.149132941 Z M14,3.44325059 C18.9933067,3.44325059 23.0588235,7.50880941 23.0588235,12.5020741 C23.0588235,17.4953265 18.9933067,21.5608976 14,21.5608976 C9.00669371,21.5608976 4.94117647,17.4953265 4.94117647,12.5020741 C4.94117647,7.50880941 9.00669371,3.44325059 14,3.44325059 Z M13.1764706,5.37339765 C12.7152233,5.67367088 12.2399496,6.21702447 11.8253676,7.04619176 C11.7177991,7.26133018 11.6117857,7.49602947 11.5165441,7.74104471 C12.0532568,7.66182529 12.60434,7.61283394 13.1764706,7.58663294 L13.1764706,5.37339765 Z M14.8235294,5.37339765 L14.8235294,7.58663294 C15.3956612,7.61283394 15.9467432,7.66182529 16.4834559,7.74104471 C16.3882143,7.49602947 16.2822009,7.26133018 16.1746324,7.04619176 C15.7600504,6.21702447 15.2847767,5.67367088 14.8235294,5.37339765 Z M10.5386029,5.93957412 C9.21469582,6.63738312 8.13329382,7.72840929 7.4375,9.05354471 C7.56094665,8.98354018 7.68139359,8.91229665 7.81066176,8.84766235 C8.36364776,8.57116853 8.97741229,8.33175 9.63786765,8.13994176 C9.82986118,7.47617788 10.068597,6.85385318 10.3455882,6.29986824 C10.407369,6.17630629 10.4722775,6.05768018 10.5386029,5.93957412 Z M17.4613971,5.93957412 C17.5271423,6.05693818 17.5930901,6.17722412 17.6544118,6.29986824 C17.931403,6.85385318 18.1701388,7.47617788 18.3621324,8.13994176 C19.0225869,8.33175 19.6363531,8.57116853 20.1893382,8.84766235 C20.3190371,8.912512 20.4385057,8.98322847 20.5625,9.05354471 C19.8667062,7.72840929 18.7853042,6.63738312 17.4613971,5.93957412 Z M13.1764706,9.23369176 C12.4115588,9.27451618 11.6779489,9.362899 11.0018382,9.50391235 C10.8608245,10.1800222 10.7724421,10.9136321 10.7316176,11.6785447 L13.1764706,11.6785447 L13.1764706,9.23369176 Z M14.8235294,9.23369176 L14.8235294,11.6785447 L17.2683824,11.6785447 C17.2275579,10.9136321 17.1391755,10.1800222 16.9981618,9.50391235 C16.3220515,9.362899 15.5884433,9.27451618 14.8235294,9.23369176 Z M9.23897059,10.0186182 C8.99395535,10.1138602 8.75925524,10.2198728 8.54411765,10.3274418 C7.71495365,10.7420254 7.171598,11.2172982 6.87132353,11.6785447 L9.08455882,11.6785447 C9.11073759,11.1062519 9.15986153,10.5563665 9.23897059,10.0186182 Z M18.7610294,10.0186182 C18.8401385,10.5563665 18.8892624,11.1062519 18.9154412,11.6785447 L21.1286765,11.6785447 C20.8284016,11.2172982 20.2850451,10.7420254 19.4558824,10.3274418 C19.2407452,10.2198728 19.0060438,10.1138602 18.7610294,10.0186182 Z M6.87132353,13.3256035 C7.17159718,13.7868521 7.714952,14.2621204 8.54411765,14.6767065 C8.75925565,14.7842763 8.99395535,14.8902876 9.23897059,14.98553 C9.15975076,14.4488153 9.11075982,13.8977296 9.08455882,13.3256035 L6.87132353,13.3256035 Z M10.7316176,13.3256035 C10.7724421,14.0905055 10.8608245,14.8241244 11.0018382,15.5002359 C11.6779493,15.6412488 12.4115596,15.7296325 13.1764706,15.7704565 L13.1764706,13.3256035 L10.7316176,13.3256035 Z M14.8235294,13.3256035 L14.8235294,15.7704565 C15.5884425,15.7296325 16.3220515,15.6412488 16.9981618,15.5002359 C17.1391755,14.8241244 17.2275579,14.0905055 17.2683824,13.3256035 L14.8235294,13.3256035 Z M18.9154412,13.3256035 C18.8892402,13.8977296 18.8402492,14.4488153 18.7610294,14.98553 C19.0060442,14.8902876 19.2407448,14.7842763 19.4558824,14.6767065 C20.2850464,14.2621204 20.828402,13.7868516 21.1286765,13.3256035 L18.9154412,13.3256035 Z M7.42463235,15.9377359 C8.124557,17.2783508 9.22371141,18.3775254 10.5643382,19.0774418 C10.4915251,18.9491964 10.4127067,18.8256509 10.3455882,18.6914124 C10.0674202,18.1350812 9.83029559,17.5163866 9.63786765,16.8513388 C8.97741271,16.6575916 8.36364653,16.4201145 7.81066176,16.1436182 C7.67938953,16.0779817 7.55061506,16.0085837 7.42463235,15.9377359 Z M20.5753676,15.9377359 C20.4482501,16.0096242 20.3224774,16.0770478 20.1893382,16.1436182 C19.6363539,16.4201145 19.0225865,16.6575916 18.3621324,16.8513388 C18.1697044,17.5163866 17.9325798,18.1350812 17.6544118,18.6914124 C17.5895625,18.8211129 17.5188456,18.940579 17.4485294,19.0645741 C18.7822122,18.3643065 19.8781063,17.2732498 20.5753676,15.9377359 Z M11.5165441,17.2631035 C11.6117861,17.5081221 11.7177986,17.7428144 11.8253676,17.9579565 C12.2399501,18.787139 12.7152229,19.3304823 13.1764706,19.6307506 L13.1764706,17.4175153 C12.6043396,17.390667 12.0532568,17.343781 11.5165441,17.2631035 Z M16.4834559,17.2631035 C15.9467432,17.343781 15.3956616,17.390667 14.8235294,17.4175153 L14.8235294,19.6307506 C15.2847771,19.3304823 15.7600499,18.787139 16.1746324,17.9579565 C16.2822014,17.7428144 16.3882139,17.5081221 16.4834559,17.2631035 Z M6.06066176,25.6785447 C6.07352765,25.6782434 6.08639882,25.6782434 6.09926471,25.6785447 C6.12498585,25.6773378 6.15074944,25.6773378 6.17647059,25.6785447 L21.8235294,25.6785447 C22.1205202,25.6743498 22.3967639,25.8303897 22.5464835,26.0869149 C22.6962031,26.3434401 22.6962031,26.6607081 22.5464835,26.9172334 C22.3967639,27.1737586 22.1205202,27.3297985 21.8235294,27.3256035 L6.17647059,27.3256035 C5.72164786,27.3575832 5.32701652,27.0148012 5.2950368,26.5599785 C5.26305707,26.1051558 5.60583904,25.7105244 6.06066176,25.6785447 Z M6.06066176,29.7961918 C6.07352765,29.7958905 6.08639882,29.7958905 6.09926471,29.7961918 C6.12498585,29.7949849 6.15074944,29.7949849 6.17647059,29.7961918 L21.8235294,29.7961918 C22.1205202,29.7919968 22.3967639,29.9480367 22.5464835,30.2045619 C22.6962031,30.4610872 22.6962031,30.7783552 22.5464835,31.0348804 C22.3967639,31.2914056 22.1205202,31.4474455 21.8235294,31.4432506 L6.17647059,31.4432506 C5.72164786,31.4752303 5.32701652,31.1324483 5.2950368,30.6776256 C5.26305707,30.2228029 5.60583904,29.8281715 6.06066176,29.7961918 Z" transform="translate(21 17.557)" stroke="none" class="main-fill"></path>
  </g></g></g><style>
          .main-fill {fill: #050a46;}
          .main-stroke {stroke: #050a46;}
          .secondary-fill {fill: #fff;}
          .secondary-stroke {stroke: #fff;}

          .main-fill--darken {fill: #000000;}
          .main-stroke--darken {stroke: #000000;}
          .secondary-fill--darken {fill: #d9d9d9;}
          .secondary-stroke--darken {stroke: #d9d9d9;}

          .main-fill--darkener {fill: #000000;}
          .main-stroke--darkener {stroke: #000000;}
          .secondary-fill--darkener {fill: #bfbfbf;}
          .secondary-stroke--darkener {stroke: #bfbfbf;}
        </style></svg>